<svg width="44" height="44" viewBox="0 0 44 44" fill="none" xmlns="http://www.w3.org/2000/svg">
<circle cx="22" cy="22" r="22" fill="#DADBDE" style="fill:#DADBDE;fill:color(display-p3 0.8549 0.8588 0.8706);fill-opacity:1;"/>
<path d="M25.1858 12.1406C25.7217 12.1405 26.2379 12.3428 26.6308 12.7072C27.0237 13.0716 27.2644 13.5711 27.3046 14.1055L27.3099 14.2648C27.31 14.5249 27.4055 14.776 27.5783 14.9704C27.7512 15.1648 27.9894 15.289 28.2477 15.3194L28.372 15.3268H29.4341C30.2468 15.3268 31.0288 15.6373 31.6201 16.1948C32.2114 16.7524 32.5673 17.5148 32.615 18.3261L32.6203 18.513V28.0717C32.6203 28.8844 32.3098 29.6664 31.7523 30.2577C31.1947 30.849 30.4323 31.2049 29.621 31.2526L29.4341 31.2579H14.5651C13.7524 31.2579 12.9704 30.9474 12.3791 30.3899C11.7878 29.8323 11.4319 29.0699 11.3842 28.2586L11.3789 28.0717V18.513C11.3789 17.7003 11.6894 16.9183 12.2469 16.327C12.8045 15.7357 13.5669 15.3798 14.3782 15.3321L14.5651 15.3268H15.6272C15.9089 15.3268 16.179 15.2149 16.3782 15.0158C16.5774 14.8166 16.6893 14.5464 16.6893 14.2648C16.6891 13.7289 16.8915 13.2127 17.2559 12.8198C17.6202 12.4268 18.1197 12.1861 18.6541 12.1459L18.8134 12.1406H25.1858ZM21.9996 19.5751C21.21 19.575 20.4486 19.8681 19.8629 20.3976C19.2771 20.927 18.9088 21.655 18.8293 22.4406L18.8176 22.602L18.8134 22.7613L18.8176 22.9206C18.8488 23.5432 19.0619 24.143 19.4306 24.6457C19.7993 25.1484 20.3074 25.5319 20.8919 25.7487C21.4764 25.9655 22.1116 26.006 22.7189 25.8653C23.3262 25.7246 23.8789 25.4089 24.3086 24.9572C24.7382 24.5054 25.0259 23.9376 25.136 23.324C25.2461 22.7104 25.1738 22.078 24.928 21.5051C24.6822 20.9322 24.2737 20.444 23.7532 20.1009C23.2327 19.7579 22.623 19.5751 21.9996 19.5751Z" fill="white" style="fill:white;fill-opacity:1;"/>
</svg>
