<svg width="24" height="22" viewBox="0 0 24 22" fill="none" xmlns="http://www.w3.org/2000/svg">
<path d="M11.8828 0.644531C12.0958 0.524882 12.3567 0.524136 12.5703 0.642578L12.6729 0.710938L17.9043 4.94629L17.9082 4.94922L23.7773 9.79785L23.4561 10.1875L23.1348 10.5762L17.2656 5.72754V5.72656L12.2285 1.64941L1.31836 10.5771L0.999023 10.1875L0.679688 9.79688L11.7812 0.713867L11.8828 0.644531Z" fill="#DADBDE" style="fill:#DADBDE;fill:color(display-p3 0.8549 0.8588 0.8706);fill-opacity:1;"/>
<path d="M11.2354 1.46582C11.7904 1.01642 12.5836 1.01643 13.1387 1.46582L20.8135 7.68066C21.1681 7.9679 21.374 8.40011 21.374 8.85645V20.3115C21.374 21.147 20.6968 21.8252 19.8613 21.8252H4.5127C3.67728 21.8251 3.00005 21.1469 3 20.3115V8.85645C3 8.40012 3.20597 7.9679 3.56055 7.68066L11.2354 1.46582Z" fill="#DADBDE" style="fill:#DADBDE;fill:color(display-p3 0.8549 0.8588 0.8706);fill-opacity:1;"/>
</svg>
