<svg width="20" height="22" viewBox="0 0 20 22" fill="none" xmlns="http://www.w3.org/2000/svg">
<path fill-rule="evenodd" clip-rule="evenodd" d="M9.92345 9.92502C12.6642 9.92502 14.886 7.70323 14.886 4.96251C14.886 2.22179 12.6642 0 9.92345 0C7.18273 0 4.96094 2.22179 4.96094 4.96251C4.96094 7.70323 7.18273 9.92502 9.92345 9.92502ZM0 20.4563V14.4961C0 13.7589 0.511887 13.1205 1.23151 12.9603L3.78478 12.3918C7.85493 11.4855 12.075 11.4892 16.1436 12.4025L18.6212 12.9586C19.3395 13.1199 19.85 13.7577 19.85 14.4939V20.4563C19.85 21.0357 19.3804 21.5053 18.8011 21.5053H1.04899C0.469647 21.5053 0 21.0357 0 20.4563Z" fill="#3F3F45" style="fill:#3F3F45;fill:color(display-p3 0.2472 0.2472 0.2718);fill-opacity:1;"/>
</svg>
