<svg width="22" height="20" viewBox="0 0 22 20" fill="none" xmlns="http://www.w3.org/2000/svg">
<path d="M13.8069 0.644531C14.3428 0.644367 14.8589 0.840657 15.2519 1.19405C15.6448 1.54745 15.8855 2.03183 15.9257 2.5501L15.931 2.70461C15.9311 2.9569 16.0266 3.2004 16.1994 3.38894C16.3723 3.57747 16.6105 3.69792 16.8688 3.72744L16.9931 3.73465H18.0552C18.8679 3.7346 19.6499 4.03575 20.2412 4.57648C20.8325 5.11721 21.1884 5.85664 21.2361 6.64347L21.2414 6.82476V16.0951C21.2414 16.8833 20.9309 17.6417 20.3734 18.2152C19.8158 18.7887 19.0534 19.1338 18.2421 19.1801L18.0552 19.1852H3.18621C2.3735 19.1853 1.59149 18.8841 1.00019 18.3434C0.408889 17.8027 0.0529893 17.0632 0.00531047 16.2764L4.94972e-09 16.0951V6.82476C-4.52672e-05 6.03656 0.310469 5.27814 0.868012 4.70467C1.42555 4.1312 2.18798 3.78604 2.99928 3.7398L3.18621 3.73465H4.24828C4.52995 3.73465 4.8001 3.62612 4.99927 3.43295C5.19845 3.23978 5.31034 2.97779 5.31034 2.70461C5.31017 2.18487 5.51257 1.68429 5.87696 1.30319C6.24134 0.922096 6.74079 0.688662 7.27517 0.649682L7.43448 0.644531H13.8069ZM10.6207 7.8548C9.83114 7.85474 9.06969 8.13899 8.48395 8.65245C7.89821 9.1659 7.5299 9.872 7.45041 10.6338L7.43873 10.7904L7.43448 10.9449L7.43873 11.0994C7.4699 11.7033 7.68303 12.285 8.05173 12.7725C8.42042 13.26 8.92848 13.6319 9.51297 13.8422C10.0975 14.0524 10.7327 14.0918 11.34 13.9553C11.9473 13.8189 12.5 13.5126 12.9297 13.0745C13.3593 12.6364 13.647 12.0857 13.7571 11.4907C13.8672 10.8956 13.7949 10.2822 13.5491 9.72659C13.3033 9.17097 12.8948 8.69748 12.3743 8.36477C11.8538 8.03206 11.2441 7.85475 10.6207 7.8548Z" fill="white" style="fill:white;fill-opacity:1;"/>
</svg>
