<svg width="348" height="519" viewBox="0 0 348 519" fill="none" xmlns="http://www.w3.org/2000/svg">
<path d="M8.96875 0.00390625C8.96903 3.9663 12.1812 7.17847 16.1436 7.17871C20.1062 7.17871 23.3191 3.96645 23.3193 0.00390625H28.6992C28.6995 3.9663 31.9116 7.17847 35.874 7.17871C39.8366 7.17871 43.0495 3.96645 43.0498 0.00390625H48.4336C48.4339 3.9663 51.646 7.17847 55.6084 7.17871C59.571 7.17871 62.7839 3.96645 62.7842 0.00390625H68.1641C68.1643 3.9663 71.3765 7.17847 75.3389 7.17871C79.3015 7.17871 82.5144 3.96645 82.5146 0.00390625H87.8984C87.8987 3.9663 91.1108 7.17847 95.0732 7.17871C99.0359 7.17871 102.249 3.96645 102.249 0.00390625H107.629C107.629 3.9663 110.841 7.17847 114.804 7.17871C118.766 7.17871 121.979 3.96645 121.979 0.00390625H127.359C127.36 3.9663 130.572 7.17847 134.534 7.17871C138.497 7.17871 141.71 3.96645 141.71 0.00390625H147.09C147.09 3.9663 150.302 7.17847 154.265 7.17871C158.227 7.17871 161.44 3.96645 161.44 0.00390625H166.824C166.825 3.9663 170.037 7.17847 173.999 7.17871C177.962 7.17871 181.175 3.96645 181.175 0.00390625H186.559C186.559 3.9663 189.771 7.17847 193.733 7.17871C197.696 7.17871 200.909 3.96645 200.909 0.00390625H206.289C206.289 3.9663 209.501 7.17847 213.464 7.17871C217.426 7.17871 220.639 3.96645 220.64 0.00390625H226.02C226.02 3.9663 229.232 7.17847 233.194 7.17871C237.157 7.17871 240.37 3.96645 240.37 0.00390625H245.75C245.75 3.9663 248.962 7.17847 252.925 7.17871C256.887 7.17871 260.1 3.96645 260.101 0.00390625H265.484C265.485 3.9663 268.697 7.17847 272.659 7.17871C276.622 7.17871 279.835 3.96645 279.835 0.00390625H285.219C285.219 3.9663 288.431 7.17847 292.394 7.17871C296.356 7.17871 299.569 3.96645 299.569 0.00390625H304.949C304.949 3.9663 308.162 7.17847 312.124 7.17871C316.087 7.17871 319.3 3.96645 319.3 0.00390625H324.68C324.68 3.9663 327.892 7.17847 331.854 7.17871C335.817 7.17871 339.03 3.96645 339.03 0.00390625H348V5.38281H347.999C344.037 5.38306 340.824 8.59519 340.824 12.5576C340.824 16.5203 344.036 19.7332 347.999 19.7334L348 19.7324V25.1172H347.999C344.037 25.1174 340.824 28.3296 340.824 32.292C340.824 36.2546 344.036 39.4675 347.999 39.4678L348 39.4668V44.8477H347.999C344.037 44.8479 340.824 48.06 340.824 52.0225C340.824 55.9851 344.036 59.198 347.999 59.1982L348 59.1973V64.582H347.999C344.037 64.5823 340.824 67.7944 340.824 71.7568C340.824 75.7195 344.036 78.9324 347.999 78.9326L348 78.9316V84.3125H347.999C344.037 84.3127 340.824 87.5249 340.824 91.4873C340.824 95.4499 344.036 98.6628 347.999 98.6631L348 98.6621V104.043H347.999C344.037 104.043 340.824 107.255 340.824 111.218C340.824 115.18 344.036 118.393 347.999 118.394L348 118.393V123.773H347.999C344.037 123.774 340.824 126.986 340.824 130.948C340.824 134.911 344.036 138.124 347.999 138.124L348 138.123V143.508H347.999C344.037 143.508 340.824 146.72 340.824 150.683C340.824 154.645 344.036 157.858 347.999 157.858L348 157.857V163.242H347.999C344.037 163.242 340.824 166.455 340.824 170.417C340.824 174.38 344.036 177.593 347.999 177.593L348 177.592V182.973H347.999C344.037 182.973 340.824 186.185 340.824 190.147C340.824 194.11 344.036 197.323 347.999 197.323L348 197.322V202.703H347.999C344.037 202.703 340.824 205.915 340.824 209.878C340.824 213.841 344.036 217.053 347.999 217.054L348 217.053V222.434H347.999C344.037 222.434 340.824 225.646 340.824 229.608C340.824 233.571 344.036 236.784 347.999 236.784L348 236.783V242.168H347.999C344.037 242.168 340.824 245.38 340.824 249.343C340.824 253.305 344.036 256.518 347.999 256.519L348 256.518V261.902H347.999C344.037 261.903 340.824 265.115 340.824 269.077C340.824 273.04 344.036 276.253 347.999 276.253L348 276.252V281.633H347.999C344.037 281.633 340.824 284.845 340.824 288.808C340.824 292.77 344.036 295.983 347.999 295.983L348 295.982V301.363H347.999C344.037 301.364 340.824 304.576 340.824 308.538C340.824 312.501 344.036 315.714 347.999 315.714L348 315.713V321.094H347.999C344.037 321.094 340.824 324.306 340.824 328.269C340.824 332.231 344.036 335.444 347.999 335.444L348 335.443V340.828H347.999C344.037 340.828 340.824 344.04 340.824 348.003C340.824 351.966 344.036 355.178 347.999 355.179L348 355.178V360.562H347.999C344.037 360.563 340.824 363.775 340.824 367.737C340.824 371.7 344.036 374.913 347.999 374.913L348 374.912V380.293H347.999C344.037 380.293 340.824 383.505 340.824 387.468C340.824 391.43 344.036 394.643 347.999 394.644L348 394.643V400.023H347.999C344.037 400.024 340.824 403.236 340.824 407.198C340.824 411.161 344.036 414.374 347.999 414.374L348 414.373V419.754H347.999C344.037 419.754 340.824 422.966 340.824 426.929C340.824 430.891 344.036 434.104 347.999 434.104L348 434.104V439.484H347.999C344.037 439.485 340.824 442.697 340.824 446.659C340.824 450.622 344.036 453.835 347.999 453.835L348 453.834V459.223H347.999C344.037 459.223 340.824 462.435 340.824 466.397C340.824 470.36 344.036 473.573 347.999 473.573L348 473.572V478.953H347.999C344.037 478.953 340.824 482.165 340.824 486.128C340.824 490.091 344.036 493.303 347.999 493.304L348 493.303V498.684H347.999C344.037 498.684 340.824 501.896 340.824 505.858C340.824 509.821 344.036 513.034 347.999 513.034L348 513.033V518.417H339.03C339.03 514.454 335.817 511.242 331.854 511.242C327.892 511.242 324.68 514.455 324.68 518.417H319.3C319.3 514.454 316.087 511.242 312.124 511.242C308.162 511.242 304.949 514.455 304.949 518.417H299.569C299.569 514.454 296.356 511.242 292.394 511.242C288.431 511.242 285.219 514.455 285.219 518.417H279.835C279.835 514.454 276.622 511.242 272.659 511.242C268.697 511.242 265.485 514.455 265.484 518.417H260.101C260.1 514.454 256.887 511.242 252.925 511.242C248.962 511.242 245.75 514.455 245.75 518.417H240.37C240.37 514.454 237.157 511.242 233.194 511.242C229.232 511.242 226.02 514.455 226.02 518.417H220.64C220.639 514.454 217.426 511.242 213.464 511.242C209.501 511.242 206.289 514.455 206.289 518.417H200.909C200.909 514.454 197.696 511.242 193.733 511.242C189.771 511.242 186.559 514.455 186.559 518.417H181.175C181.175 514.454 177.962 511.242 173.999 511.242C170.037 511.242 166.824 514.455 166.824 518.417H161.44C161.44 514.454 158.227 511.242 154.265 511.242C150.302 511.242 147.09 514.455 147.09 518.417H141.71C141.71 514.454 138.497 511.242 134.534 511.242C130.572 511.242 127.36 514.455 127.359 518.417H121.979C121.979 514.454 118.766 511.242 114.804 511.242C110.841 511.242 107.629 514.455 107.629 518.417H102.249C102.249 514.454 99.0359 511.242 95.0732 511.242C91.1108 511.242 87.8987 514.455 87.8984 518.417H82.5146C82.5144 514.454 79.3015 511.242 75.3389 511.242C71.3764 511.242 68.1643 514.455 68.1641 518.417H62.7842C62.7839 514.454 59.571 511.242 55.6084 511.242C51.646 511.242 48.4338 514.455 48.4336 518.417H43.0498C43.0496 514.454 39.8367 511.242 35.874 511.242C31.9116 511.242 28.6995 514.455 28.6992 518.417H23.3193C23.3191 514.454 20.1062 511.242 16.1436 511.242C12.1811 511.242 8.969 514.455 8.96875 518.417H0V513.033C3.96254 513.033 7.1748 509.821 7.1748 505.858C7.17456 501.896 3.96239 498.684 0 498.684V493.303C3.96254 493.302 7.1748 490.091 7.1748 486.128C7.17456 482.166 3.96239 478.953 0 478.953V473.572C3.96254 473.572 7.1748 470.36 7.1748 466.397C7.17456 462.435 3.96239 459.223 0 459.223V453.834C3.96254 453.834 7.1748 450.622 7.1748 446.659C7.17456 442.697 3.96239 439.485 0 439.484V434.104C3.96254 434.103 7.1748 430.891 7.1748 426.929C7.17456 422.966 3.96239 419.754 0 419.754V414.373C3.96254 414.373 7.1748 411.161 7.1748 407.198C7.17456 403.236 3.96239 400.024 0 400.023V394.643C3.96254 394.642 7.1748 391.43 7.1748 387.468C7.17456 383.505 3.96239 380.293 0 380.293V374.912C3.96254 374.912 7.1748 371.7 7.1748 367.737C7.17456 363.775 3.96239 360.563 0 360.562V355.178C3.96254 355.177 7.1748 351.966 7.1748 348.003C7.17456 344.041 3.96239 340.828 0 340.828V335.443C3.96254 335.443 7.1748 332.231 7.1748 328.269C7.17456 324.306 3.96239 321.094 0 321.094V315.713C3.96254 315.713 7.1748 312.501 7.1748 308.538C7.17456 304.576 3.96239 301.364 0 301.363V295.982C3.96254 295.982 7.1748 292.77 7.1748 288.808C7.17456 284.845 3.96239 281.633 0 281.633V276.252C3.96254 276.252 7.1748 273.04 7.1748 269.077C7.17456 265.115 3.96239 261.903 0 261.902V256.518C3.96254 256.517 7.1748 253.305 7.1748 249.343C7.17456 245.38 3.96239 242.168 0 242.168V236.783C3.96254 236.783 7.1748 233.571 7.1748 229.608C7.17456 225.646 3.96239 222.434 0 222.434V217.053C3.96254 217.052 7.1748 213.841 7.1748 209.878C7.17456 205.916 3.96239 202.703 0 202.703V197.322C3.96254 197.322 7.1748 194.11 7.1748 190.147C7.17456 186.185 3.96239 182.973 0 182.973V177.592C3.96254 177.592 7.1748 174.38 7.1748 170.417C7.17456 166.455 3.96239 163.242 0 163.242V157.857C3.96254 157.857 7.1748 154.645 7.1748 150.683C7.17456 146.72 3.96239 143.508 0 143.508V138.123C3.96254 138.123 7.1748 134.911 7.1748 130.948C7.17456 126.986 3.96239 123.774 0 123.773V118.393C3.96254 118.392 7.1748 115.18 7.1748 111.218C7.17456 107.255 3.96239 104.043 0 104.043V98.6621C3.96254 98.6618 7.1748 95.4499 7.1748 91.4873C7.17456 87.5249 3.96239 84.3128 0 84.3125V78.9316C3.96254 78.9314 7.1748 75.7194 7.1748 71.7568C7.17456 67.7944 3.96239 64.5823 0 64.582V59.1973C3.96254 59.197 7.1748 55.9851 7.1748 52.0225C7.17456 48.0601 3.96239 44.8479 0 44.8477V39.4668C3.96254 39.4665 7.1748 36.2546 7.1748 32.292C7.17456 28.3296 3.96239 25.1175 0 25.1172V19.7324C3.96254 19.7321 7.1748 16.5202 7.1748 12.5576C7.17456 8.59521 3.96239 5.3831 0 5.38281V0.00390625H8.96875Z" fill="#DEE2EA" style="fill:#DEE2EA;fill:color(display-p3 0.8691 0.8859 0.9195);fill-opacity:1;"/>
</svg>
