<svg width="32" height="32" viewBox="0 0 32 32" fill="none" xmlns="http://www.w3.org/2000/svg">
<circle cx="16" cy="16" r="15.65" fill="#FBFBFB" stroke="#D7D7D7" style="fill:#FBFBFB;fill:color(display-p3 0.9830 0.9830 0.9830);fill-opacity:1;stroke:#D7D7D7;stroke:color(display-p3 0.8420 0.8420 0.8420);stroke-opacity:1;" stroke-width="0.7"/>
<path d="M13 17L10 23" stroke="#F0BE6D" style="stroke:#F0BE6D;stroke:color(display-p3 0.9412 0.7442 0.4275);stroke-opacity:1;" stroke-width="0.583333"/>
<path d="M19 17L22 23" stroke="#F0BE6D" style="stroke:#F0BE6D;stroke:color(display-p3 0.9412 0.7442 0.4275);stroke-opacity:1;" stroke-width="0.583333"/>
<path d="M16 17.332V23.1654" stroke="#F0BE6D" style="stroke:#F0BE6D;stroke:color(display-p3 0.9412 0.7442 0.4275);stroke-opacity:1;" stroke-width="0.583333"/>
<circle cx="16.0013" cy="10.3333" r="1.75" fill="#F0DC6D" stroke="#F0DC6D" style="fill:#F0DC6D;fill:color(display-p3 0.9404 0.8637 0.4288);fill-opacity:1;stroke:#F0DC6D;stroke:color(display-p3 0.9412 0.8627 0.4275);stroke-opacity:1;" stroke-width="1.16667"/>
<path d="M13.1761 16.6478C13.3745 16.251 13.7807 16.0011 14.2242 16.0029L17.7831 16.0169C18.2228 16.0187 18.6242 16.2676 18.8214 16.6607L22 23H10L13.1761 16.6478Z" fill="url(#paint0_linear_218_1669)" fill-opacity="0.3" style=""/>
<path d="M13.8066 10.9375L18.1963 10.9551C18.4163 10.956 18.6173 11.0806 18.7158 11.2773L21.6338 17.1143C21.8275 17.5021 21.5459 17.958 21.1123 17.958H10.8857C10.4524 17.958 10.1699 17.5021 10.3633 17.1143L13.2822 11.2607C13.3813 11.0622 13.5847 10.9366 13.8066 10.9375Z" fill="#F0DC6D" stroke="#F0DC6D" style="fill:#F0DC6D;fill:color(display-p3 0.9404 0.8637 0.4288);fill-opacity:1;stroke:#F0DC6D;stroke:color(display-p3 0.9412 0.8627 0.4275);stroke-opacity:1;" stroke-width="1.16667"/>
<defs>
<linearGradient id="paint0_linear_218_1669" x1="16" y1="16" x2="16" y2="23" gradientUnits="userSpaceOnUse">
<stop stop-color="#C6B972" style="stop-color:#C6B972;stop-color:color(display-p3 0.7752 0.7258 0.4456);stop-opacity:1;"/>
<stop offset="1" stop-color="#F0DC6D" style="stop-color:#F0DC6D;stop-color:color(display-p3 0.9404 0.8637 0.4288);stop-opacity:1;"/>
</linearGradient>
</defs>
</svg>
