<svg width="32" height="32" viewBox="0 0 32 32" fill="none" xmlns="http://www.w3.org/2000/svg">
<circle cx="16" cy="16" r="15.65" fill="#FBFBFB" stroke="#D7D7D7" style="fill:#FBFBFB;fill:color(display-p3 0.9830 0.9830 0.9830);fill-opacity:1;stroke:#D7D7D7;stroke:color(display-p3 0.8420 0.8420 0.8420);stroke-opacity:1;" stroke-width="0.7"/>
<g clip-path="url(#clip0_218_1668)">
<rect x="8" y="9" width="17" height="15" rx="3" fill="#E3F2F0" style="fill:#E3F2F0;fill:color(display-p3 0.8886 0.9502 0.9430);fill-opacity:1;"/>
<path d="M18.8594 15.308L16.0864 23.7375C16.0438 23.8669 16.1402 24 16.2763 24H27.5157C27.6941 24 27.7832 23.7841 27.6568 23.6583L19.1905 15.2288C19.085 15.1238 18.9059 15.1666 18.8594 15.308Z" fill="#D4E28D" style="fill:#D4E28D;fill:color(display-p3 0.8313 0.8873 0.5513);fill-opacity:1;"/>
<path d="M11.8463 12.308L8.08635 23.7375C8.0438 23.8669 8.14016 24 8.27634 24H23.5157C23.6941 24 23.7832 23.7841 23.6568 23.6583L12.1774 12.2288C12.0719 12.1238 11.8928 12.1666 11.8463 12.308Z" fill="#BAE597" style="fill:#BAE597;fill:color(display-p3 0.7288 0.8976 0.5907);fill-opacity:1;"/>
</g>
<defs>
<clipPath id="clip0_218_1668">
<rect x="8" y="9" width="17" height="15" rx="3" fill="white" style="fill:white;fill-opacity:1;"/>
</clipPath>
</defs>
</svg>
