<svg width="165" height="41" viewBox="0 0 165 41" fill="none" xmlns="http://www.w3.org/2000/svg">
<path d="M4.95703 21.0039C4.98047 20.5352 4.96875 20.0664 4.92188 19.5977C4.89844 19.1289 4.86328 18.6602 4.81641 18.1914C4.79297 18.0742 4.75781 17.8867 4.71094 17.6289C4.6875 17.3711 4.67578 17.2188 4.67578 17.1719C4.67578 17.1484 4.65234 17.1016 4.60547 17.0312C4.55859 16.9375 4.53516 16.8789 4.53516 16.8555L4.60547 16.7852C4.67578 16.7148 4.69922 16.6797 4.67578 16.6797V9.89453H4.53516C4.25391 10.2227 3.92578 10.5742 3.55078 10.9492C3.17578 11.3242 2.73047 11.5117 2.21484 11.5117C1.83984 11.5117 1.47656 11.3828 1.125 11.125C0.796875 10.8672 0.632812 10.5273 0.632812 10.1055V10.0352C0.632812 10.0117 0.644531 9.97656 0.667969 9.92969C0.691406 9.88281 0.714844 9.83594 0.738281 9.78906C0.761719 9.71875 0.785156 9.66016 0.808594 9.61328L4.74609 6.16797V4.23438C4.74609 4 4.88672 3.82422 5.16797 3.70703C5.44922 3.56641 5.68359 3.49609 5.87109 3.49609C6.17578 3.49609 6.45703 3.57813 6.71484 3.74219C6.97266 3.88281 7.23047 3.95312 7.48828 3.95312C7.72266 3.95312 7.93359 3.88281 8.12109 3.74219C8.30859 3.60156 8.49609 3.47266 8.68359 3.35547C9.57422 2.81641 10.4297 2.40625 11.25 2.125C12.0938 1.84375 13.0312 1.70312 14.0625 1.70312C14.5078 1.70312 15.0352 1.75 15.6445 1.84375C16.2773 1.91406 16.875 2.05469 17.4375 2.26562C18.0234 2.47656 18.5156 2.76953 18.9141 3.14453C19.3125 3.51953 19.5117 4 19.5117 4.58594C19.5117 5.64062 19.3008 6.64844 18.8789 7.60938C18.457 8.57031 17.8711 9.42578 17.1211 10.1758C16.1367 11.1133 15.2109 11.957 14.3438 12.707C13.5 13.4336 12.5508 14.1719 11.4961 14.9219C11.4727 14.9453 11.4492 14.9805 11.4258 15.0273C11.4023 15.0508 11.3789 15.0742 11.3555 15.0977L7.94531 17.4531C7.82812 17.5469 7.76953 17.7227 7.76953 17.9805C7.76953 18.2148 7.76953 18.3672 7.76953 18.4375C7.76953 19.1172 7.80469 19.7969 7.875 20.4766C7.96875 21.1328 8.0625 21.8008 8.15625 22.4805C8.25 23.1602 8.33203 23.8398 8.40234 24.5195C8.49609 25.1992 8.54297 25.8789 8.54297 26.5586C8.54297 26.9336 8.44922 27.2734 8.26172 27.5781C8.09766 27.8594 7.79297 28 7.34766 28C7.01953 28 6.66797 27.8711 6.29297 27.6133C5.94141 27.332 5.74219 27.0156 5.69531 26.6641L4.95703 21.0039ZM7.76953 14.2188L14.168 9.33203C14.4492 9.12109 14.7305 8.85156 15.0117 8.52344C15.3164 8.17188 15.5859 7.80859 15.8203 7.43359C16.0781 7.03516 16.2891 6.625 16.4531 6.20312C16.6172 5.78125 16.6992 5.38281 16.6992 5.00781C16.6992 4.77344 16.5938 4.59766 16.3828 4.48047C16.1953 4.33984 15.9727 4.24609 15.7148 4.19922C15.457 4.12891 15.1875 4.09375 14.9062 4.09375C14.6484 4.09375 14.4375 4.09375 14.2734 4.09375C13.2188 4.09375 12.2461 4.33984 11.3555 4.83203C10.4883 5.30078 9.65625 5.80469 8.85938 6.34375C8.8125 6.39063 8.71875 6.46094 8.57812 6.55469C8.4375 6.625 8.29688 6.71875 8.15625 6.83594C8.01562 6.92969 7.88672 7.02344 7.76953 7.11719C7.67578 7.21094 7.62891 7.29297 7.62891 7.36328V14.043L7.76953 14.2188ZM20.2331 26.6641C19.9988 24.3203 19.7995 22.3164 19.6355 20.6523C19.4714 18.9883 19.3308 17.5938 19.2136 16.4688C19.0964 15.3438 18.9909 14.4531 18.8972 13.7969C18.8269 13.1172 18.7683 12.6133 18.7214 12.2852C18.6745 11.9336 18.6394 11.6992 18.6159 11.582C18.5925 11.4648 18.5808 11.3945 18.5808 11.3711V11.2305C18.5808 10.9727 18.6863 10.7617 18.8972 10.5977C19.1316 10.4102 19.3659 10.3164 19.6003 10.3164C19.9519 10.3164 20.3269 10.375 20.7253 10.4922C21.1472 10.6094 21.4284 10.8555 21.5691 11.2305C21.78 12.3789 21.9206 13.5391 21.9909 14.7109C22.0847 15.8828 22.155 17.0547 22.2019 18.2266C22.2722 19.375 22.3542 20.5352 22.448 21.707C22.5652 22.8789 22.7644 24.0391 23.0456 25.1875C23.0456 25.2344 23.0573 25.3281 23.0808 25.4688C23.1277 25.6094 23.1628 25.7617 23.1863 25.9258C23.2331 26.0898 23.2683 26.2422 23.2917 26.3828C23.3152 26.5234 23.3269 26.6172 23.3269 26.6641V26.7344C23.3269 26.7578 23.3386 26.7812 23.362 26.8047C23.362 27.0859 23.2331 27.3672 22.9753 27.6484C22.7175 27.9297 22.448 28.0469 22.1667 28C22.0964 27.9766 21.9206 27.9414 21.6394 27.8945C21.3816 27.8242 21.2058 27.7656 21.112 27.7188C21.0417 27.6953 20.948 27.6484 20.8308 27.5781C20.7136 27.4844 20.5964 27.3906 20.4792 27.2969C20.3855 27.2031 20.3034 27.0977 20.2331 26.9805C20.1628 26.8633 20.1628 26.7578 20.2331 26.6641ZM18.2644 1.03516C18.2644 0.871094 18.3933 0.730469 18.6511 0.613281C18.9323 0.472656 19.1433 0.402344 19.2839 0.402344C19.6355 0.402344 20.0222 0.507812 20.4441 0.71875C20.8894 0.90625 21.112 1.19922 21.112 1.59766C21.112 1.99609 21.0534 2.26562 20.9363 2.40625C20.8425 2.54688 20.5964 2.61719 20.198 2.61719C19.7761 2.61719 19.3425 2.47656 18.8972 2.19531C18.4753 1.91406 18.2644 1.52734 18.2644 1.03516ZM23.9428 23.7812C23.7787 23.0781 23.7787 22.2461 23.9428 21.2852C24.1303 20.3242 24.4116 19.3633 24.7866 18.4023C25.185 17.418 25.6655 16.4922 26.228 15.625C26.8139 14.7578 27.4233 14.0664 28.0561 13.5508C28.7123 13.0352 29.3686 12.7539 30.0248 12.707C30.7045 12.6367 31.3491 12.9297 31.9584 13.5859C31.9584 13.6094 31.9702 13.668 31.9936 13.7617C32.017 13.8555 32.0405 14.0547 32.0639 14.3594C32.0873 14.6406 32.0991 15.0508 32.0991 15.5898C32.1225 16.1055 32.1342 16.8203 32.1342 17.7344C32.1577 17.7812 32.1811 17.8633 32.2045 17.9805C32.2514 18.0742 32.2748 18.1445 32.2748 18.1914C32.2045 18.4492 32.0639 18.6953 31.853 18.9297C31.6655 19.1406 31.4194 19.2461 31.1147 19.2461C30.7162 19.2461 30.3881 19.1875 30.1303 19.0703C29.8959 18.9297 29.7202 18.6133 29.603 18.1211C29.6498 18.0508 29.6616 17.9102 29.6381 17.6992C29.6147 17.4648 29.5678 17.207 29.4975 16.9258C29.4506 16.6445 29.4037 16.3633 29.3569 16.082C29.31 15.8008 29.2866 15.5781 29.2866 15.4141C29.2631 15.4141 29.228 15.4375 29.1811 15.4844C29.1577 15.5078 29.1342 15.5312 29.1108 15.5547C28.7123 16.2578 28.3373 17.043 27.9858 17.9102C27.6577 18.7539 27.3998 19.6211 27.2123 20.5117C27.0483 21.3789 26.9897 22.2461 27.0366 23.1133C27.1069 23.9805 27.3647 24.7656 27.81 25.4688C28.1381 25.4688 28.4428 25.3398 28.7241 25.082C29.0053 24.8008 29.2397 24.543 29.4272 24.3086C29.8256 23.8398 30.2123 23.3594 30.5873 22.8672C30.9858 22.375 31.3491 21.8594 31.6772 21.3203C31.8178 21.0859 31.9233 20.875 31.9936 20.6875C32.0639 20.5 32.1459 20.3477 32.2397 20.2305C32.3569 20.1133 32.4975 20.0195 32.6616 19.9492C32.8256 19.8789 33.0717 19.8438 33.3998 19.8438C33.7748 19.8438 34.1264 19.9375 34.4545 20.125C34.7827 20.2891 34.9467 20.5703 34.9467 20.9688C34.9467 21.5078 34.7006 22.1875 34.2084 23.0078C33.7397 23.8047 33.1537 24.5781 32.4506 25.3281C31.7709 26.0781 31.0444 26.7227 30.2709 27.2617C29.4975 27.7773 28.8178 28.0352 28.2319 28.0352C27.6694 28.0352 27.1186 27.9297 26.5795 27.7188C26.0639 27.4844 25.6069 27.1797 25.2084 26.8047C24.8334 26.4297 24.5287 25.9844 24.2944 25.4688C24.06 24.9531 23.9428 24.3906 23.9428 23.7812ZM36.1603 29.3008C36.1603 29.1836 36.1486 28.9844 36.1252 28.7031C36.1017 28.4219 36.0783 28.1289 36.0548 27.8242C36.0548 27.4961 36.0431 27.2031 36.0197 26.9453C36.0197 26.6641 36.0197 26.4648 36.0197 26.3477C35.9963 25.6914 35.9845 24.6953 35.9845 23.3594C36.008 22.0234 36.0197 20.5586 36.0197 18.9648C36.0431 17.3477 36.0666 15.6953 36.09 14.0078C36.1134 12.3203 36.1252 10.7852 36.1252 9.40234C36.1252 7.99609 36.1134 6.83594 36.09 5.92188C36.09 5.00781 36.0666 4.53906 36.0197 4.51562C36.0197 4.28125 36.1017 4.04687 36.2658 3.8125C36.4298 3.55469 36.6408 3.44922 36.8986 3.49609C37.0861 3.49609 37.297 3.53125 37.5314 3.60156C37.7892 3.64844 38.0236 3.73047 38.2345 3.84766C38.4455 3.96484 38.6213 4.11719 38.7619 4.30469C38.9259 4.46875 39.008 4.67969 39.008 4.9375V15.2031H39.1486L43.1916 10.5977C43.3556 10.3867 43.508 10.1406 43.6486 9.85938C43.8127 9.57812 43.9767 9.30859 44.1408 9.05078C44.3048 8.79297 44.4923 8.55859 44.7033 8.34766C44.9142 8.13672 45.1838 7.99609 45.5119 7.92578C46.0041 8.04297 46.4259 8.20703 46.7775 8.41797C47.1291 8.62891 47.3048 9.00391 47.3048 9.54297C47.3048 9.58984 47.2814 9.67187 47.2345 9.78906C47.2111 9.88281 47.1877 9.95312 47.1642 10C47.0939 10.0938 46.9416 10.2812 46.7072 10.5625C46.4963 10.8203 46.133 11.2656 45.6173 11.8984C45.1252 12.5078 44.4455 13.3281 43.5783 14.3594C42.7345 15.3672 41.6447 16.6797 40.3088 18.2969L40.6252 18.4727L47.4455 19.1758C47.7502 19.2227 48.0197 19.3984 48.2541 19.7031C48.5119 19.9844 48.6408 20.2539 48.6408 20.5117C48.6408 20.9805 48.465 21.3203 48.1134 21.5312C47.7853 21.7188 47.422 21.8359 47.0236 21.8828C47.0002 21.7891 46.9181 21.7422 46.7775 21.7422C46.6603 21.7188 46.3439 21.6836 45.8283 21.6367C45.3127 21.5898 44.5275 21.5195 43.4728 21.4258C42.4416 21.3086 41.0002 21.1094 39.1486 20.8281L39.2892 29.1953C39.2892 29.6641 39.2072 30.0156 39.0431 30.25C38.8791 30.5078 38.5158 30.6367 37.9533 30.6367C37.5314 30.6367 37.1564 30.4961 36.8283 30.2148C36.5236 29.957 36.3009 29.6523 36.1603 29.3008ZM48.7997 28.3516C48.8231 28.2578 48.8583 28.0234 48.9052 27.6484C48.9755 27.25 49.0458 26.8281 49.1161 26.3828C49.1864 25.9141 49.2567 25.4922 49.327 25.1172C49.3973 24.7188 49.4325 24.4727 49.4325 24.3789C49.4559 24.2148 49.4794 24.0391 49.5028 23.8516C49.5262 23.6406 49.5731 23.4531 49.6434 23.2891C49.7137 23.125 49.8192 22.9961 49.9598 22.9023C50.1005 22.7852 50.288 22.7266 50.5223 22.7266C50.9677 22.7266 51.3192 22.832 51.577 23.043C51.8583 23.2305 51.9989 23.5586 51.9989 24.0273C51.9989 24.0977 51.9989 24.1914 51.9989 24.3086C51.9989 24.4258 51.9872 24.4961 51.9637 24.5195C51.9403 24.6602 51.8934 24.9062 51.8231 25.2578C51.7762 25.5859 51.7177 25.9375 51.6473 26.3125C51.577 26.6875 51.5184 27.0508 51.4716 27.4023C51.4247 27.7305 51.3895 27.9531 51.3661 28.0703C51.202 28.2812 51.0966 28.5508 51.0497 28.8789C51.0262 29.207 50.9911 29.5117 50.9442 29.793C50.8973 30.0977 50.8036 30.3555 50.663 30.5664C50.5223 30.8008 50.2528 30.918 49.8544 30.918C49.6434 30.918 49.4677 30.8477 49.327 30.707C49.2098 30.5898 49.1044 30.4375 49.0106 30.25C48.9403 30.0625 48.8817 29.8633 48.8348 29.6523C48.8114 29.4414 48.7997 29.2539 48.7997 29.0898V28.3516ZM68.4886 19.8438C68.348 19.5391 68.2308 19.293 68.137 19.1055C68.0667 18.918 68.0316 18.6953 68.0316 18.4375C68.0316 18.2266 68.055 18.0391 68.1019 17.875C68.1722 17.6875 68.2073 17.4883 68.2073 17.2773C68.2073 16.7617 68.1839 16.2812 68.137 15.8359C68.1136 15.3906 68.0784 14.8984 68.0316 14.3594C68.0081 14.2891 67.9261 14.2305 67.7855 14.1836C67.6448 14.1367 67.4925 14.0781 67.3284 14.0078C67.1644 13.9141 67.012 13.7852 66.8714 13.6211C66.7542 13.457 66.6956 13.2227 66.6956 12.918C66.6956 12.6367 66.7542 12.4023 66.8714 12.2148C67.012 12.0039 67.1527 11.8164 67.2933 11.6523C67.4339 11.4648 67.5628 11.2773 67.68 11.0898C67.8206 10.8789 67.8909 10.6328 67.8909 10.3516C67.8909 10.2344 67.8792 10.0234 67.8558 9.71875C67.8323 9.39062 67.8089 9.05078 67.7855 8.69922C67.7855 8.34766 67.7738 8.01953 67.7503 7.71484C67.7503 7.38672 67.7503 7.16406 67.7503 7.04688V6.97656V6.90625C67.8441 6.69531 67.9144 6.51953 67.9613 6.37891C68.0316 6.23828 68.1019 6.13281 68.1722 6.0625C68.2425 5.99219 68.3363 5.94531 68.4534 5.92188C68.5706 5.875 68.723 5.85156 68.9105 5.85156C69.4027 5.85156 69.7659 5.94531 70.0003 6.13281C70.2347 6.32031 70.3988 6.54297 70.4925 6.80078C70.5863 7.03516 70.6448 7.25781 70.6683 7.46875C70.6917 7.67969 70.7503 7.79688 70.8441 7.82031L73.3753 5.60547H73.5159C74.3363 5.06641 75.2034 4.65625 76.1175 4.375C77.0316 4.07031 77.9925 3.91797 79.0003 3.91797C79.305 3.91797 79.6683 3.95312 80.0902 4.02344C80.5355 4.09375 80.9456 4.22266 81.3206 4.41016C81.7191 4.57422 82.0472 4.79688 82.305 5.07812C82.5863 5.35938 82.7269 5.71094 82.7269 6.13281C82.7269 6.60156 82.6683 7.08203 82.5511 7.57422C82.4339 8.06641 82.2698 8.55859 82.0589 9.05078C81.8714 9.51953 81.637 9.97656 81.3558 10.4219C81.098 10.8438 80.8167 11.207 80.512 11.5117C80.3948 11.7695 79.6448 12.4258 78.262 13.4805C76.8792 14.5352 74.8167 16.1055 72.0745 18.1914L88.9495 19.2461C89.1839 19.2695 89.5003 19.293 89.8988 19.3164C90.3206 19.3164 90.7191 19.3516 91.0941 19.4219C91.4925 19.4922 91.8323 19.6328 92.1136 19.8438C92.3948 20.0312 92.5355 20.3242 92.5355 20.7227C92.5355 20.9336 92.5003 21.1094 92.43 21.25C92.3831 21.3672 92.3128 21.4727 92.2191 21.5664C92.1488 21.6367 92.055 21.707 91.9378 21.7773C91.8441 21.8477 91.7503 21.9414 91.6566 22.0586H91.0589H90.4613C89.9925 22.0117 89.5003 21.9531 88.9847 21.8828C88.4925 21.8125 87.9066 21.7305 87.2269 21.6367C86.5706 21.543 85.7972 21.4492 84.9066 21.3555C84.0159 21.2617 82.9495 21.1797 81.7073 21.1094C80.4652 21.0391 79.012 20.9805 77.348 20.9336C75.7073 20.8867 73.7972 20.8633 71.6175 20.8633C71.5941 20.8633 71.5589 20.8984 71.512 20.9688C71.4886 21.0391 71.4769 21.0977 71.4769 21.1445C71.4769 22.0352 71.5472 22.9141 71.6878 23.7812C71.8519 24.625 71.9339 25.4688 71.9339 26.3125C71.9339 26.4766 71.9105 26.6641 71.8636 26.875C71.8402 27.0625 71.7816 27.25 71.6878 27.4375C71.5941 27.6016 71.4769 27.7422 71.3363 27.8594C71.1956 27.9766 71.0198 28.0352 70.8089 28.0352C70.6683 28.0352 70.5042 28.0117 70.3167 27.9648C70.1292 27.8945 69.9417 27.8008 69.7542 27.6836C69.5902 27.5664 69.4378 27.4375 69.2972 27.2969C69.1566 27.1562 69.0745 26.9922 69.0511 26.8047L68.4886 19.8438ZM70.8441 12.0742C70.8441 12.6602 70.8558 13.2109 70.8792 13.7266C70.9027 14.2422 70.9378 14.8047 70.9847 15.4141H71.0902C71.1136 15.4141 71.1722 15.3906 71.2659 15.3438C71.3597 15.2969 71.5941 15.1562 71.9691 14.9219C72.3441 14.6641 72.9183 14.2773 73.6917 13.7617C74.4652 13.2227 75.555 12.4727 76.9613 11.5117C77.2425 11.3477 77.5472 11.0664 77.8753 10.668C78.2034 10.2695 78.5081 9.83594 78.7894 9.36719C79.0706 8.89844 79.305 8.44141 79.4925 7.99609C79.68 7.52734 79.7738 7.14062 79.7738 6.83594C79.7738 6.60156 79.6566 6.48438 79.4222 6.48438C79.2113 6.48438 79.0238 6.48438 78.8597 6.48438C78.5081 6.48438 78.1097 6.54297 77.6644 6.66016C77.2191 6.77734 76.68 7.01172 76.0472 7.36328C75.4378 7.71484 74.6995 8.21875 73.8323 8.875C72.9886 9.53125 71.9925 10.4102 70.8441 11.5117V12.0742ZM107.601 18.0156C107.554 18.4375 107.495 18.7656 107.425 19C107.378 19.2344 107.284 19.4453 107.144 19.6328C107.003 19.8203 106.804 20.0195 106.546 20.2305C106.288 20.418 105.937 20.6992 105.491 21.0742C105.046 21.4258 104.495 21.8945 103.839 22.4805C103.183 23.0664 102.386 23.8281 101.448 24.7656C101.073 25.1172 100.687 25.4805 100.288 25.8555C99.8897 26.2305 99.4678 26.5703 99.0225 26.875C98.6006 27.1562 98.1553 27.3906 97.6866 27.5781C97.2178 27.7656 96.7256 27.8594 96.21 27.8594C95.2022 27.8594 94.4639 27.5195 93.9952 26.8398C93.5264 26.1602 93.292 25.375 93.292 24.4844C93.292 23.8984 93.3037 23.4062 93.3272 23.0078C93.3741 22.6094 93.4678 22.0938 93.6084 21.4609C93.3506 21.2266 93.128 21.0273 92.9405 20.8633C92.753 20.6758 92.6592 20.4297 92.6592 20.125C92.6592 19.8438 92.7178 19.6562 92.835 19.5625C92.9756 19.4688 93.128 19.4102 93.292 19.3867C93.4795 19.3398 93.6553 19.293 93.8194 19.2461C93.9834 19.1992 94.1006 19.1055 94.1709 18.9648C94.2178 18.8242 94.2998 18.5664 94.417 18.1914C94.5577 17.8164 94.6983 17.4297 94.8389 17.0312C94.9795 16.6094 95.1084 16.2227 95.2256 15.8711C95.3662 15.4961 95.46 15.2383 95.5069 15.0977C95.6709 14.6992 95.8467 14.3008 96.0342 13.9023C96.2452 13.4805 96.4795 13.1055 96.7373 12.7773C97.0186 12.4492 97.335 12.1797 97.6866 11.9688C98.0616 11.7578 98.4952 11.6523 98.9873 11.6523C99.2686 11.6523 99.6084 11.7812 100.007 12.0391C100.429 12.2969 100.827 12.6133 101.202 12.9883C101.577 13.3398 101.894 13.7148 102.151 14.1133C102.409 14.5117 102.538 14.8516 102.538 15.1328C102.538 15.4844 102.456 15.8125 102.292 16.1172C102.128 16.3984 101.917 16.668 101.659 16.9258C101.425 17.1602 101.167 17.3828 100.886 17.5938C100.605 17.8047 100.347 18.0039 100.112 18.1914C100.089 18.1914 100.042 18.2148 99.9717 18.2617C99.9014 18.3086 99.8428 18.3438 99.7959 18.3672C99.7725 18.3906 99.7139 18.4492 99.6202 18.543C99.5498 18.6133 99.4678 18.6953 99.3741 18.7891C99.2803 18.8828 99.1866 18.9766 99.0928 19.0703C99.0225 19.1641 98.9756 19.2227 98.9522 19.2461C98.8819 19.3164 98.7412 19.4336 98.5303 19.5977C98.3428 19.7383 98.1319 19.9023 97.8975 20.0898C97.6631 20.2539 97.4405 20.418 97.2295 20.582C97.042 20.7227 96.9131 20.8164 96.8428 20.8633L96.7022 21.1445C96.6553 21.2383 96.6084 21.4492 96.5616 21.7773C96.5381 22.082 96.503 22.4336 96.4561 22.832C96.4092 23.2305 96.3623 23.6406 96.3155 24.0625C96.292 24.4609 96.2803 24.7891 96.2803 25.0469C96.2803 25.0703 96.292 25.0938 96.3155 25.1172C96.3623 25.1641 96.3975 25.1875 96.4209 25.1875C96.6084 25.1875 96.7842 25.1055 96.9483 24.9414C97.1123 24.7773 97.2881 24.6602 97.4756 24.5898L103.101 19.3867L104.542 17.1719C104.659 17.0078 104.882 16.832 105.21 16.6445C105.562 16.4336 105.913 16.3281 106.265 16.3281C106.616 16.3047 106.921 16.4102 107.179 16.6445C107.46 16.8789 107.601 17.3359 107.601 18.0156ZM99.8662 15.2734C99.9834 15.1797 100.03 15.0391 100.007 14.8516C99.9834 14.6641 99.9131 14.5 99.7959 14.3594C99.7022 14.2188 99.5733 14.1367 99.4092 14.1133C99.2452 14.0664 99.0928 14.1484 98.9522 14.3594C98.8819 14.4531 98.753 14.6406 98.5655 14.9219C98.4014 15.2031 98.2256 15.4961 98.0381 15.8008C97.8741 16.082 97.7334 16.3281 97.6162 16.5391C97.4991 16.75 97.4756 16.832 97.5459 16.7852L99.8662 15.2734ZM107.83 23.7812C107.666 23.0781 107.666 22.2461 107.83 21.2852C108.017 20.3242 108.299 19.3633 108.674 18.4023C109.072 17.418 109.552 16.4922 110.115 15.625C110.701 14.7578 111.31 14.0664 111.943 13.5508C112.599 13.0352 113.256 12.7539 113.912 12.707C114.592 12.6367 115.236 12.9297 115.845 13.5859C115.845 13.6094 115.857 13.668 115.881 13.7617C115.904 13.8555 115.927 14.0547 115.951 14.3594C115.974 14.6406 115.986 15.0508 115.986 15.5898C116.01 16.1055 116.021 16.8203 116.021 17.7344C116.045 17.7812 116.068 17.8633 116.092 17.9805C116.138 18.0742 116.162 18.1445 116.162 18.1914C116.092 18.4492 115.951 18.6953 115.74 18.9297C115.552 19.1406 115.306 19.2461 115.002 19.2461C114.603 19.2461 114.275 19.1875 114.017 19.0703C113.783 18.9297 113.607 18.6133 113.49 18.1211C113.537 18.0508 113.549 17.9102 113.525 17.6992C113.502 17.4648 113.455 17.207 113.385 16.9258C113.338 16.6445 113.291 16.3633 113.244 16.082C113.197 15.8008 113.174 15.5781 113.174 15.4141C113.15 15.4141 113.115 15.4375 113.068 15.4844C113.045 15.5078 113.021 15.5312 112.998 15.5547C112.599 16.2578 112.224 17.043 111.873 17.9102C111.545 18.7539 111.287 19.6211 111.099 20.5117C110.935 21.3789 110.877 22.2461 110.924 23.1133C110.994 23.9805 111.252 24.7656 111.697 25.4688C112.025 25.4688 112.33 25.3398 112.611 25.082C112.892 24.8008 113.127 24.543 113.314 24.3086C113.713 23.8398 114.099 23.3594 114.474 22.8672C114.873 22.375 115.236 21.8594 115.564 21.3203C115.705 21.0859 115.81 20.875 115.881 20.6875C115.951 20.5 116.033 20.3477 116.127 20.2305C116.244 20.1133 116.385 20.0195 116.549 19.9492C116.713 19.8789 116.959 19.8438 117.287 19.8438C117.662 19.8438 118.013 19.9375 118.342 20.125C118.67 20.2891 118.834 20.5703 118.834 20.9688C118.834 21.5078 118.588 22.1875 118.095 23.0078C117.627 23.8047 117.041 24.5781 116.338 25.3281C115.658 26.0781 114.931 26.7227 114.158 27.2617C113.385 27.7773 112.705 28.0352 112.119 28.0352C111.556 28.0352 111.006 27.9297 110.467 27.7188C109.951 27.4844 109.494 27.1797 109.095 26.8047C108.72 26.4297 108.416 25.9844 108.181 25.4688C107.947 24.9531 107.83 24.3906 107.83 23.7812ZM126.586 37.668C126.54 37.1758 126.504 36.5781 126.481 35.875C126.481 35.1719 126.481 34.4336 126.481 33.6602C126.481 32.8867 126.481 32.1016 126.481 31.3047C126.504 30.5078 126.54 29.7812 126.586 29.125V27.8594C126.469 27.6953 126.329 27.5312 126.165 27.3672C126 27.1797 125.707 26.8281 125.286 26.3125C124.887 25.7734 124.313 24.9883 123.563 23.957C122.813 22.9023 121.805 21.4375 120.54 19.5625C120.047 19.0469 119.731 18.625 119.59 18.2969C119.45 17.9453 119.403 17.6641 119.45 17.4531C119.497 17.2422 119.614 17.0898 119.801 16.9961C120.012 16.9023 120.211 16.8555 120.399 16.8555C120.868 16.8555 121.29 16.9609 121.665 17.1719C122.04 17.3828 122.379 17.6523 122.684 17.9805C122.989 18.3086 123.258 18.6719 123.493 19.0703C123.75 19.4453 123.997 19.8086 124.231 20.1602C124.372 20.3711 124.547 20.6406 124.758 20.9688C124.969 21.2969 125.18 21.625 125.391 21.9531C125.602 22.2578 125.778 22.5273 125.918 22.7617C126.082 22.9961 126.165 23.1133 126.165 23.1133L126.586 23.5703V19.8789C126.586 18.707 126.563 17.5703 126.516 16.4688C126.469 15.3438 126.446 14.207 126.446 13.0586C126.446 12.7305 126.563 12.4609 126.797 12.25C127.032 12.0391 127.313 11.9453 127.641 11.9688C128.04 12.0156 128.332 12.0859 128.52 12.1797C128.731 12.2734 128.942 12.4609 129.153 12.7422C129.34 13 129.422 13.3047 129.399 13.6562C129.399 14.0078 129.411 14.3477 129.434 14.6758C129.528 16.9023 129.598 19.1289 129.645 21.3555C129.715 23.5586 129.75 25.7734 129.75 28C129.727 28.2109 129.715 28.6328 129.715 29.2656C129.715 29.9219 129.715 30.6602 129.715 31.4805C129.739 32.3008 129.75 33.1562 129.75 34.0469C129.774 34.9375 129.786 35.7461 129.786 36.4727C129.809 37.2227 129.821 37.832 129.821 38.3008C129.844 38.793 129.868 39.0273 129.891 39.0039C129.891 39.3555 129.762 39.6133 129.504 39.7773C129.27 39.9414 128.977 40.0234 128.625 40.0234C128.157 40.0234 127.805 39.9531 127.571 39.8125C127.36 39.6953 127.196 39.5195 127.079 39.2852C126.961 39.0742 126.879 38.8281 126.832 38.5469C126.786 38.2656 126.704 37.9727 126.586 37.668ZM130.859 23.7812C130.695 23.0781 130.695 22.2461 130.859 21.2852C131.046 20.3242 131.327 19.3633 131.702 18.4023C132.101 17.418 132.581 16.4922 133.144 15.625C133.73 14.7578 134.339 14.0664 134.972 13.5508C135.628 13.0352 136.284 12.7539 136.941 12.707C137.62 12.6367 138.265 12.9297 138.874 13.5859C138.874 13.6094 138.886 13.668 138.909 13.7617C138.933 13.8555 138.956 14.0547 138.98 14.3594C139.003 14.6406 139.015 15.0508 139.015 15.5898C139.038 16.1055 139.05 16.8203 139.05 17.7344C139.073 17.7812 139.097 17.8633 139.12 17.9805C139.167 18.0742 139.191 18.1445 139.191 18.1914C139.12 18.4492 138.98 18.6953 138.769 18.9297C138.581 19.1406 138.335 19.2461 138.03 19.2461C137.632 19.2461 137.304 19.1875 137.046 19.0703C136.812 18.9297 136.636 18.6133 136.519 18.1211C136.566 18.0508 136.577 17.9102 136.554 17.6992C136.53 17.4648 136.484 17.207 136.413 16.9258C136.366 16.6445 136.32 16.3633 136.273 16.082C136.226 15.8008 136.202 15.5781 136.202 15.4141C136.179 15.4141 136.144 15.4375 136.097 15.4844C136.073 15.5078 136.05 15.5312 136.027 15.5547C135.628 16.2578 135.253 17.043 134.902 17.9102C134.573 18.7539 134.316 19.6211 134.128 20.5117C133.964 21.3789 133.905 22.2461 133.952 23.1133C134.023 23.9805 134.28 24.7656 134.726 25.4688C135.054 25.4688 135.359 25.3398 135.64 25.082C135.921 24.8008 136.155 24.543 136.343 24.3086C136.741 23.8398 137.128 23.3594 137.503 22.8672C137.902 22.375 138.265 21.8594 138.593 21.3203C138.734 21.0859 138.839 20.875 138.909 20.6875C138.98 20.5 139.062 20.3477 139.155 20.2305C139.273 20.1133 139.413 20.0195 139.577 19.9492C139.741 19.8789 139.988 19.8438 140.316 19.8438C140.691 19.8438 141.042 19.9375 141.37 20.125C141.698 20.2891 141.863 20.5703 141.863 20.9688C141.863 21.5078 141.616 22.1875 141.124 23.0078C140.655 23.8047 140.07 24.5781 139.366 25.3281C138.687 26.0781 137.96 26.7227 137.187 27.2617C136.413 27.7773 135.734 28.0352 135.148 28.0352C134.585 28.0352 134.034 27.9297 133.495 27.7188C132.98 27.4844 132.523 27.1797 132.124 26.8047C131.749 26.4297 131.445 25.9844 131.21 25.4688C130.976 24.9531 130.859 24.3906 130.859 23.7812ZM142.865 25.5391C142.865 24.5547 142.889 23.5938 142.935 22.6562C142.982 21.7188 143.006 20.7578 143.006 19.7734C142.935 17.1016 142.912 14.4883 142.935 11.9336C142.959 9.35547 142.842 6.71875 142.584 4.02344C142.584 3.57813 142.689 3.28516 142.9 3.14453C143.111 2.98047 143.428 2.89844 143.85 2.89844C144.389 2.89844 144.846 3.0625 145.221 3.39062C145.619 3.69531 145.83 4.12891 145.853 4.69141C145.807 8.01953 145.842 11.3242 145.959 14.6055C146.1 17.8633 146.17 21.168 146.17 24.5195V27.2266C146.029 27.4141 145.83 27.6016 145.572 27.7891C145.314 27.9766 145.057 28.0469 144.799 28C144.119 27.8828 143.627 27.6133 143.322 27.1914C143.018 26.7461 142.865 26.1953 142.865 25.5391ZM161.938 18.0156C161.891 18.4375 161.833 18.7656 161.762 19C161.715 19.2344 161.622 19.4453 161.481 19.6328C161.34 19.8203 161.141 20.0195 160.883 20.2305C160.626 20.418 160.274 20.6992 159.829 21.0742C159.383 21.4258 158.833 21.8945 158.176 22.4805C157.52 23.0664 156.723 23.8281 155.786 24.7656C155.411 25.1172 155.024 25.4805 154.626 25.8555C154.227 26.2305 153.805 26.5703 153.36 26.875C152.938 27.1562 152.493 27.3906 152.024 27.5781C151.555 27.7656 151.063 27.8594 150.548 27.8594C149.54 27.8594 148.801 27.5195 148.333 26.8398C147.864 26.1602 147.63 25.375 147.63 24.4844C147.63 23.8984 147.641 23.4062 147.665 23.0078C147.712 22.6094 147.805 22.0938 147.946 21.4609C147.688 21.2266 147.465 21.0273 147.278 20.8633C147.09 20.6758 146.997 20.4297 146.997 20.125C146.997 19.8438 147.055 19.6562 147.173 19.5625C147.313 19.4688 147.465 19.4102 147.63 19.3867C147.817 19.3398 147.993 19.293 148.157 19.2461C148.321 19.1992 148.438 19.1055 148.508 18.9648C148.555 18.8242 148.637 18.5664 148.755 18.1914C148.895 17.8164 149.036 17.4297 149.176 17.0312C149.317 16.6094 149.446 16.2227 149.563 15.8711C149.704 15.4961 149.798 15.2383 149.844 15.0977C150.008 14.6992 150.184 14.3008 150.372 13.9023C150.583 13.4805 150.817 13.1055 151.075 12.7773C151.356 12.4492 151.673 12.1797 152.024 11.9688C152.399 11.7578 152.833 11.6523 153.325 11.6523C153.606 11.6523 153.946 11.7812 154.344 12.0391C154.766 12.2969 155.165 12.6133 155.54 12.9883C155.915 13.3398 156.231 13.7148 156.489 14.1133C156.747 14.5117 156.876 14.8516 156.876 15.1328C156.876 15.4844 156.794 15.8125 156.63 16.1172C156.465 16.3984 156.255 16.668 155.997 16.9258C155.762 17.1602 155.505 17.3828 155.223 17.5938C154.942 17.8047 154.684 18.0039 154.45 18.1914C154.426 18.1914 154.38 18.2148 154.309 18.2617C154.239 18.3086 154.18 18.3438 154.133 18.3672C154.11 18.3906 154.051 18.4492 153.958 18.543C153.887 18.6133 153.805 18.6953 153.712 18.7891C153.618 18.8828 153.524 18.9766 153.43 19.0703C153.36 19.1641 153.313 19.2227 153.29 19.2461C153.219 19.3164 153.079 19.4336 152.868 19.5977C152.68 19.7383 152.469 19.9023 152.235 20.0898C152.001 20.2539 151.778 20.418 151.567 20.582C151.38 20.7227 151.251 20.8164 151.18 20.8633L151.04 21.1445C150.993 21.2383 150.946 21.4492 150.899 21.7773C150.876 22.082 150.84 22.4336 150.794 22.832C150.747 23.2305 150.7 23.6406 150.653 24.0625C150.63 24.4609 150.618 24.7891 150.618 25.0469C150.618 25.0703 150.63 25.0938 150.653 25.1172C150.7 25.1641 150.735 25.1875 150.758 25.1875C150.946 25.1875 151.122 25.1055 151.286 24.9414C151.45 24.7773 151.626 24.6602 151.813 24.5898L157.438 19.3867L158.88 17.1719C158.997 17.0078 159.219 16.832 159.548 16.6445C159.899 16.4336 160.251 16.3281 160.602 16.3281C160.954 16.3047 161.258 16.4102 161.516 16.6445C161.798 16.8789 161.938 17.3359 161.938 18.0156ZM154.204 15.2734C154.321 15.1797 154.368 15.0391 154.344 14.8516C154.321 14.6641 154.251 14.5 154.133 14.3594C154.04 14.2188 153.911 14.1367 153.747 14.1133C153.583 14.0664 153.43 14.1484 153.29 14.3594C153.219 14.4531 153.09 14.6406 152.903 14.9219C152.739 15.2031 152.563 15.4961 152.376 15.8008C152.212 16.082 152.071 16.3281 151.954 16.5391C151.837 16.75 151.813 16.832 151.883 16.7852L154.204 15.2734ZM161.992 26.8047C161.992 26.5703 162.074 26.3477 162.238 26.1367C162.425 25.9258 162.601 25.75 162.765 25.6094H163.327C163.726 25.6094 164.054 25.7031 164.312 25.8906C164.593 26.0547 164.734 26.3477 164.734 26.7695C164.734 26.9102 164.687 27.0625 164.593 27.2266C164.499 27.3672 164.37 27.5078 164.206 27.6484C164.066 27.7656 163.902 27.8594 163.714 27.9297C163.527 28 163.351 28.0234 163.187 28C162.952 27.9531 162.695 27.8125 162.413 27.5781C162.132 27.3438 161.992 27.0859 161.992 26.8047ZM161.992 15.0977C161.992 14.8398 161.992 14.6172 161.992 14.4297C162.015 14.2188 162.074 13.9844 162.167 13.7266V1.70312C162.167 1.63281 162.214 1.5625 162.308 1.49219C162.425 1.39844 162.542 1.31641 162.66 1.24609C162.8 1.17578 162.929 1.11719 163.046 1.07031C163.187 1.02344 163.281 1 163.327 1C163.726 1 164.019 1.14062 164.206 1.42188C164.417 1.70312 164.581 1.99609 164.699 2.30078C164.699 2.48828 164.687 2.80469 164.663 3.25C164.663 3.67188 164.663 4.12891 164.663 4.62109C164.663 5.08984 164.663 5.54688 164.663 5.99219C164.687 6.4375 164.699 6.74219 164.699 6.90625C164.699 7.02344 164.699 7.28125 164.699 7.67969C164.722 8.05469 164.745 8.47656 164.769 8.94531C164.792 9.39062 164.804 9.8125 164.804 10.2109C164.827 10.6094 164.839 10.8555 164.839 10.9492C164.839 11.0664 164.827 11.3125 164.804 11.6875C164.804 12.0625 164.792 12.4727 164.769 12.918C164.769 13.3398 164.757 13.7617 164.734 14.1836C164.71 14.6055 164.699 14.9102 164.699 15.0977C164.652 15.5195 164.535 15.8945 164.347 16.2227C164.16 16.5508 163.82 16.7148 163.327 16.7148C162.812 16.7148 162.46 16.5742 162.273 16.293C162.085 16.0117 161.992 15.6133 161.992 15.0977Z" fill="black" style="fill:black;fill-opacity:1;"/>
</svg>
