<svg width="172" height="82" viewBox="0 0 172 82" fill="none" xmlns="http://www.w3.org/2000/svg">
<path d="M12.2188 55.3438C12.2812 54.0938 12.25 52.8438 12.125 51.5938C12.0625 50.3438 11.9688 49.0938 11.8438 47.8438C11.7812 47.5312 11.6875 47.0312 11.5625 46.3438C11.5 45.6562 11.4688 45.25 11.4688 45.125C11.4688 45.0625 11.4062 44.9375 11.2812 44.75C11.1562 44.5 11.0938 44.3438 11.0938 44.2812L11.2812 44.0938C11.4688 43.9062 11.5312 43.8125 11.4688 43.8125V25.7188H11.0938C10.3438 26.5938 9.46875 27.5312 8.46875 28.5312C7.46875 29.5312 6.28125 30.0312 4.90625 30.0312C3.90625 30.0312 2.9375 29.6875 2 29C1.125 28.3125 0.6875 27.4062 0.6875 26.2812V26.0938C0.6875 26.0312 0.71875 25.9375 0.78125 25.8125C0.84375 25.6875 0.90625 25.5625 0.96875 25.4375C1.03125 25.25 1.09375 25.0938 1.15625 24.9688L11.6562 15.7812V10.625C11.6562 10 12.0312 9.53125 12.7812 9.21875C13.5312 8.84375 14.1562 8.65625 14.6562 8.65625C15.4688 8.65625 16.2188 8.875 16.9062 9.3125C17.5938 9.6875 18.2812 9.875 18.9688 9.875C19.5938 9.875 20.1562 9.6875 20.6562 9.3125C21.1562 8.9375 21.6562 8.59375 22.1562 8.28125C24.5312 6.84375 26.8125 5.75 29 5C31.25 4.25 33.75 3.875 36.5 3.875C37.6875 3.875 39.0938 4 40.7188 4.25C42.4062 4.4375 44 4.8125 45.5 5.375C47.0625 5.9375 48.375 6.71875 49.4375 7.71875C50.5 8.71875 51.0312 10 51.0312 11.5625C51.0312 14.375 50.4688 17.0625 49.3438 19.625C48.2188 22.1875 46.6562 24.4687 44.6562 26.4688C42.0312 28.9688 39.5625 31.2188 37.25 33.2188C35 35.1562 32.4688 37.125 29.6562 39.125C29.5938 39.1875 29.5312 39.2812 29.4688 39.4062C29.4062 39.4688 29.3438 39.5312 29.2812 39.5938L20.1875 45.875C19.875 46.125 19.7188 46.5938 19.7188 47.2812C19.7188 47.9062 19.7188 48.3125 19.7188 48.5C19.7188 50.3125 19.8125 52.125 20 53.9375C20.25 55.6875 20.5 57.4688 20.75 59.2812C21 61.0938 21.2188 62.9062 21.4062 64.7188C21.6562 66.5312 21.7812 68.3438 21.7812 70.1562C21.7812 71.1562 21.5312 72.0625 21.0312 72.875C20.5938 73.625 19.7812 74 18.5938 74C17.7188 74 16.7812 73.6562 15.7812 72.9688C14.8438 72.2188 14.3125 71.375 14.1875 70.4375L12.2188 55.3438ZM19.7188 37.25L36.7812 24.2188C37.5312 23.6562 38.2812 22.9375 39.0312 22.0625C39.8438 21.125 40.5625 20.1562 41.1875 19.1562C41.875 18.0937 42.4375 17 42.875 15.875C43.3125 14.75 43.5312 13.6875 43.5312 12.6875C43.5312 12.0625 43.25 11.5938 42.6875 11.2812C42.1875 10.9062 41.5938 10.6563 40.9062 10.5312C40.2188 10.3438 39.5 10.25 38.75 10.25C38.0625 10.25 37.5 10.25 37.0625 10.25C34.25 10.25 31.6562 10.9062 29.2812 12.2188C26.9688 13.4688 24.75 14.8125 22.625 16.25C22.5 16.375 22.25 16.5625 21.875 16.8125C21.5 17 21.125 17.25 20.75 17.5625C20.375 17.8125 20.0312 18.0625 19.7188 18.3125C19.4688 18.5625 19.3438 18.7812 19.3438 18.9688V36.7812L19.7188 37.25ZM51.035 70.4375C50.41 64.1875 49.8787 58.8438 49.4412 54.4062C49.0037 49.9688 48.6287 46.25 48.3162 43.25C48.0037 40.25 47.7225 37.875 47.4725 36.125C47.285 34.3125 47.1287 32.9688 47.0037 32.0938C46.8787 31.1562 46.785 30.5312 46.7225 30.2188C46.66 29.9062 46.6287 29.7188 46.6287 29.6562V29.2812C46.6287 28.5938 46.91 28.0312 47.4725 27.5938C48.0975 27.0938 48.7225 26.8438 49.3475 26.8438C50.285 26.8438 51.285 27 52.3475 27.3125C53.4725 27.625 54.2225 28.2812 54.5975 29.2812C55.16 32.3438 55.535 35.4375 55.7225 38.5625C55.9725 41.6875 56.16 44.8125 56.285 47.9375C56.4725 51 56.6912 54.0938 56.9412 57.2188C57.2537 60.3438 57.785 63.4375 58.535 66.5C58.535 66.625 58.5662 66.875 58.6287 67.25C58.7537 67.625 58.8475 68.0312 58.91 68.4688C59.035 68.9062 59.1287 69.3125 59.1912 69.6875C59.2537 70.0625 59.285 70.3125 59.285 70.4375V70.625C59.285 70.6875 59.3162 70.75 59.3787 70.8125C59.3787 71.5625 59.035 72.3125 58.3475 73.0625C57.66 73.8125 56.9412 74.125 56.1912 74C56.0037 73.9375 55.535 73.8438 54.785 73.7188C54.0975 73.5312 53.6287 73.375 53.3787 73.25C53.1912 73.1875 52.9412 73.0625 52.6287 72.875C52.3162 72.625 52.0037 72.375 51.6912 72.125C51.4412 71.875 51.2225 71.5938 51.035 71.2812C50.8475 70.9688 50.8475 70.6875 51.035 70.4375ZM45.785 2.09375C45.785 1.65625 46.1287 1.28125 46.8162 0.96875C47.5662 0.59375 48.1287 0.40625 48.5037 0.40625C49.4412 0.40625 50.4725 0.6875 51.5975 1.25C52.785 1.75 53.3787 2.53125 53.3787 3.59375C53.3787 4.65625 53.2225 5.375 52.91 5.75C52.66 6.125 52.0037 6.3125 50.9412 6.3125C49.8162 6.3125 48.66 5.9375 47.4725 5.1875C46.3475 4.4375 45.785 3.40625 45.785 2.09375ZM59.0075 62.75C58.57 60.875 58.57 58.6562 59.0075 56.0938C59.5075 53.5312 60.2575 50.9688 61.2575 48.4062C62.32 45.7812 63.6012 43.3125 65.1012 41C66.6637 38.6875 68.2887 36.8438 69.9762 35.4688C71.7262 34.0938 73.4762 33.3438 75.2262 33.2188C77.0387 33.0312 78.7575 33.8125 80.3825 35.5625C80.3825 35.625 80.4137 35.7812 80.4762 36.0312C80.5387 36.2812 80.6012 36.8125 80.6637 37.625C80.7262 38.375 80.7575 39.4688 80.7575 40.9062C80.82 42.2812 80.8512 44.1875 80.8512 46.625C80.9137 46.75 80.9762 46.9688 81.0387 47.2812C81.1637 47.5312 81.2262 47.7188 81.2262 47.8438C81.0387 48.5312 80.6637 49.1875 80.1012 49.8125C79.6012 50.375 78.945 50.6562 78.1325 50.6562C77.07 50.6562 76.195 50.5 75.5075 50.1875C74.8825 49.8125 74.4137 48.9688 74.1012 47.6562C74.2262 47.4688 74.2575 47.0938 74.195 46.5312C74.1325 45.9062 74.0075 45.2188 73.82 44.4688C73.695 43.7188 73.57 42.9688 73.445 42.2188C73.32 41.4688 73.2575 40.875 73.2575 40.4375C73.195 40.4375 73.1012 40.5 72.9762 40.625C72.9137 40.6875 72.8512 40.75 72.7887 40.8125C71.7262 42.6875 70.7262 44.7812 69.7887 47.0938C68.9137 49.3438 68.2262 51.6562 67.7262 54.0312C67.2887 56.3438 67.1325 58.6562 67.2575 60.9688C67.445 63.2812 68.1325 65.375 69.32 67.25C70.195 67.25 71.0075 66.9062 71.7575 66.2188C72.5075 65.4688 73.1325 64.7812 73.6325 64.1562C74.695 62.9062 75.7262 61.625 76.7262 60.3125C77.7887 59 78.7575 57.625 79.6325 56.1875C80.0075 55.5625 80.2887 55 80.4762 54.5C80.6637 54 80.8825 53.5938 81.1325 53.2812C81.445 52.9688 81.82 52.7188 82.2575 52.5312C82.695 52.3438 83.3512 52.25 84.2262 52.25C85.2262 52.25 86.1637 52.5 87.0387 53C87.9137 53.4375 88.3512 54.1875 88.3512 55.25C88.3512 56.6875 87.695 58.5 86.3825 60.6875C85.1325 62.8125 83.57 64.875 81.695 66.875C79.8825 68.875 77.945 70.5938 75.8825 72.0312C73.82 73.4062 72.0075 74.0938 70.445 74.0938C68.945 74.0938 67.4762 73.8125 66.0387 73.25C64.6637 72.625 63.445 71.8125 62.3825 70.8125C61.3825 69.8125 60.57 68.625 59.945 67.25C59.32 65.875 59.0075 64.375 59.0075 62.75ZM89.6675 77.4688C89.6675 77.1562 89.6363 76.625 89.5738 75.875C89.5113 75.125 89.4488 74.3438 89.3863 73.5312C89.3863 72.6562 89.355 71.875 89.2925 71.1875C89.2925 70.4375 89.2925 69.9062 89.2925 69.5938C89.23 67.8438 89.1988 65.1875 89.1988 61.625C89.2613 58.0625 89.2925 54.1562 89.2925 49.9062C89.355 45.5938 89.4175 41.1875 89.48 36.6875C89.5425 32.1875 89.5738 28.0938 89.5738 24.4062C89.5738 20.6562 89.5425 17.5625 89.48 15.125C89.48 12.6875 89.4175 11.4375 89.2925 11.375C89.2925 10.75 89.5113 10.125 89.9488 9.5C90.3863 8.8125 90.9488 8.53125 91.6363 8.65625C92.1363 8.65625 92.6988 8.75 93.3238 8.9375C94.0113 9.0625 94.6363 9.28125 95.1988 9.59375C95.7613 9.90625 96.23 10.3125 96.605 10.8125C97.0425 11.25 97.2613 11.8125 97.2613 12.5V39.875H97.6363L108.418 27.5938C108.855 27.0312 109.261 26.375 109.636 25.625C110.074 24.875 110.511 24.1563 110.949 23.4688C111.386 22.7812 111.886 22.1562 112.449 21.5938C113.011 21.0312 113.73 20.6562 114.605 20.4688C115.918 20.7813 117.043 21.2188 117.98 21.7812C118.918 22.3438 119.386 23.3437 119.386 24.7812C119.386 24.9063 119.324 25.125 119.199 25.4375C119.136 25.6875 119.074 25.875 119.011 26C118.824 26.25 118.418 26.75 117.793 27.5C117.23 28.1875 116.261 29.375 114.886 31.0625C113.574 32.6875 111.761 34.875 109.449 37.625C107.199 40.3125 104.293 43.8125 100.73 48.125L101.574 48.5938L119.761 50.4688C120.574 50.5938 121.293 51.0625 121.918 51.875C122.605 52.625 122.949 53.3438 122.949 54.0312C122.949 55.2812 122.48 56.1875 121.543 56.75C120.668 57.25 119.699 57.5625 118.636 57.6875C118.574 57.4375 118.355 57.3125 117.98 57.3125C117.668 57.25 116.824 57.1562 115.449 57.0312C114.074 56.9062 111.98 56.7188 109.168 56.4688C106.418 56.1562 102.574 55.625 97.6363 54.875L98.0113 77.1875C98.0113 78.4375 97.7925 79.375 97.355 80C96.9175 80.6875 95.9488 81.0312 94.4488 81.0312C93.3238 81.0312 92.3238 80.6562 91.4488 79.9062C90.6363 79.2188 90.0425 78.4062 89.6675 77.4688ZM122.671 67.4375C122.671 64.8125 122.734 62.25 122.859 59.75C122.984 57.25 123.046 54.6875 123.046 52.0625C122.859 44.9375 122.796 37.9688 122.859 31.1562C122.921 24.2812 122.609 17.25 121.921 10.0625C121.921 8.875 122.202 8.09375 122.765 7.71875C123.327 7.28125 124.171 7.0625 125.296 7.0625C126.734 7.0625 127.952 7.5 128.952 8.375C130.015 9.1875 130.577 10.3438 130.64 11.8438C130.515 20.7187 130.609 29.5312 130.921 38.2812C131.296 46.9688 131.484 55.7812 131.484 64.7188V71.9375C131.109 72.4375 130.577 72.9375 129.89 73.4375C129.202 73.9375 128.515 74.125 127.827 74C126.015 73.6875 124.702 72.9688 123.89 71.8438C123.077 70.6562 122.671 69.1875 122.671 67.4375ZM171.613 47.375C171.488 48.5 171.331 49.375 171.144 50C171.019 50.625 170.769 51.1875 170.394 51.6875C170.019 52.1875 169.488 52.7188 168.8 53.2812C168.113 53.7812 167.175 54.5312 165.988 55.5312C164.8 56.4688 163.331 57.7188 161.581 59.2812C159.831 60.8438 157.706 62.875 155.206 65.375C154.206 66.3125 153.175 67.2812 152.113 68.2812C151.05 69.2812 149.925 70.1875 148.738 71C147.613 71.75 146.425 72.375 145.175 72.875C143.925 73.375 142.613 73.625 141.238 73.625C138.55 73.625 136.581 72.7188 135.331 70.9062C134.081 69.0938 133.456 67 133.456 64.625C133.456 63.0625 133.488 61.75 133.55 60.6875C133.675 59.625 133.925 58.25 134.3 56.5625C133.613 55.9375 133.019 55.4062 132.519 54.9688C132.019 54.4688 131.769 53.8125 131.769 53C131.769 52.25 131.925 51.75 132.238 51.5C132.613 51.25 133.019 51.0938 133.456 51.0312C133.956 50.9062 134.425 50.7812 134.863 50.6562C135.3 50.5312 135.613 50.2812 135.8 49.9062C135.925 49.5312 136.144 48.8438 136.456 47.8438C136.831 46.8438 137.206 45.8125 137.581 44.75C137.956 43.625 138.3 42.5938 138.613 41.6562C138.988 40.6562 139.238 39.9688 139.363 39.5938C139.8 38.5312 140.269 37.4688 140.769 36.4062C141.331 35.2812 141.956 34.2812 142.644 33.4062C143.394 32.5312 144.238 31.8125 145.175 31.25C146.175 30.6875 147.331 30.4062 148.644 30.4062C149.394 30.4062 150.3 30.75 151.363 31.4375C152.488 32.125 153.55 32.9688 154.55 33.9688C155.55 34.9062 156.394 35.9062 157.081 36.9688C157.769 38.0312 158.113 38.9375 158.113 39.6875C158.113 40.625 157.894 41.5 157.456 42.3125C157.019 43.0625 156.456 43.7812 155.769 44.4688C155.144 45.0938 154.456 45.6875 153.706 46.25C152.956 46.8125 152.269 47.3438 151.644 47.8438C151.581 47.8438 151.456 47.9062 151.269 48.0312C151.081 48.1562 150.925 48.25 150.8 48.3125C150.738 48.375 150.581 48.5312 150.331 48.7812C150.144 48.9688 149.925 49.1875 149.675 49.4375C149.425 49.6875 149.175 49.9375 148.925 50.1875C148.738 50.4375 148.613 50.5938 148.55 50.6562C148.363 50.8438 147.988 51.1562 147.425 51.5938C146.925 51.9688 146.363 52.4062 145.738 52.9062C145.113 53.3438 144.519 53.7812 143.956 54.2188C143.456 54.5938 143.113 54.8438 142.925 54.9688L142.55 55.7188C142.425 55.9688 142.3 56.5312 142.175 57.4062C142.113 58.2188 142.019 59.1562 141.894 60.2188C141.769 61.2812 141.644 62.375 141.519 63.5C141.456 64.5625 141.425 65.4375 141.425 66.125C141.425 66.1875 141.456 66.25 141.519 66.3125C141.644 66.4375 141.738 66.5 141.8 66.5C142.3 66.5 142.769 66.2812 143.206 65.8438C143.644 65.4062 144.113 65.0938 144.613 64.9062L159.613 51.0312L163.456 45.125C163.769 44.6875 164.363 44.2188 165.238 43.7188C166.175 43.1562 167.113 42.875 168.05 42.875C168.988 42.8125 169.8 43.0938 170.488 43.7188C171.238 44.3438 171.613 45.5625 171.613 47.375ZM150.988 40.0625C151.3 39.8125 151.425 39.4375 151.363 38.9375C151.3 38.4375 151.113 38 150.8 37.625C150.55 37.25 150.206 37.0312 149.769 36.9688C149.331 36.8438 148.925 37.0625 148.55 37.625C148.363 37.875 148.019 38.375 147.519 39.125C147.081 39.875 146.613 40.6562 146.113 41.4688C145.675 42.2188 145.3 42.875 144.988 43.4375C144.675 44 144.613 44.2188 144.8 44.0938L150.988 40.0625Z" fill="black" style="fill:black;fill-opacity:1;"/>
</svg>
