<svg width="27" height="14" viewBox="0 0 27 14" fill="none" xmlns="http://www.w3.org/2000/svg">
<path d="M25 0.09375C26.1045 0.0937502 26.9999 0.989296 27 2.09375V11.9082C26.9999 13.0127 26.1045 13.9082 25 13.9082H2C0.895514 13.9082 0.000135135 13.0127 0 11.9082V2.09375C0.000134308 0.989295 0.895513 0.09375 2 0.09375H25ZM5.15723 8.70215C4.9665 8.70221 4.81759 8.78907 4.71094 8.96289C4.60423 9.14261 4.55078 9.3874 4.55078 9.69629C4.55079 10.0164 4.60426 10.2634 4.71094 10.4375C4.81199 10.6115 4.96076 10.6992 5.15723 10.6992C5.35375 10.6992 5.50243 10.6115 5.60352 10.4375C5.71022 10.2634 5.76367 10.0164 5.76367 9.69629C5.76367 9.3874 5.71022 9.14261 5.60352 8.96289C5.49683 8.78913 5.34799 8.70215 5.15723 8.70215ZM7.59277 8.70215C7.49184 8.70215 7.39638 8.73014 7.30664 8.78613C7.2225 8.84223 7.15502 8.91836 7.10449 9.01367C7.05395 9.10914 7.02832 9.21606 7.02832 9.33398C7.02832 9.45192 7.05395 9.55565 7.10449 9.64551C7.15504 9.72973 7.22241 9.79712 7.30664 9.84766C7.39645 9.89813 7.49493 9.92383 7.60156 9.92383C7.67998 9.92378 7.74988 9.91206 7.81152 9.88965C7.8733 9.86718 7.92992 9.83399 7.98047 9.78906C7.96362 9.99111 7.91865 10.1624 7.8457 10.3027C7.76708 10.4375 7.657 10.5049 7.5166 10.5049C7.43254 10.5048 7.36272 10.4877 7.30664 10.4541C7.27856 10.4373 7.26148 10.4233 7.25586 10.4121C7.24469 10.3953 7.23929 10.3759 7.23926 10.3535L7.22168 10.3369L7.06152 10.5215C7.18508 10.6394 7.34323 10.6992 7.53418 10.6992C7.74176 10.6935 7.90461 10.5919 8.02246 10.3955C8.13477 10.1989 8.19043 9.90922 8.19043 9.52734C8.19039 9.36465 8.16574 9.2211 8.11523 9.09766C8.07037 8.97444 8.00267 8.87662 7.91309 8.80371C7.81764 8.73633 7.71068 8.70217 7.59277 8.70215ZM10.0615 8.68555C9.89314 8.68557 9.76366 8.73273 9.67383 8.82812C9.584 8.91796 9.53909 9.03348 9.53906 9.17383C9.53906 9.26369 9.56786 9.35131 9.62402 9.43555C9.68014 9.51954 9.7531 9.58407 9.84277 9.62891C9.72489 9.68504 9.62964 9.76104 9.55664 9.85645C9.48363 9.95754 9.44629 10.0644 9.44629 10.1768C9.44635 10.2721 9.472 10.359 9.52246 10.4375C9.56739 10.5161 9.63792 10.5803 9.7334 10.6309C9.82324 10.6758 9.92701 10.6992 10.0449 10.6992C10.1628 10.6992 10.2666 10.6735 10.3564 10.623C10.4463 10.5781 10.5168 10.513 10.5674 10.4287C10.6177 10.3502 10.6426 10.2601 10.6426 10.1592C10.6425 10.047 10.6093 9.94302 10.542 9.84766C10.469 9.7466 10.376 9.67065 10.2637 9.62012C10.3591 9.56957 10.4351 9.5022 10.4912 9.41797C10.5473 9.33378 10.5752 9.24384 10.5752 9.14844C10.5751 9.01383 10.5333 8.90449 10.4492 8.82031C10.3594 8.73045 10.23 8.68555 10.0615 8.68555ZM14.9492 8.68555C14.7809 8.68555 14.6514 8.73283 14.5615 8.82812C14.4717 8.91796 14.4268 9.03348 14.4268 9.17383C14.4268 9.26369 14.4546 9.35131 14.5107 9.43555C14.5668 9.51957 14.6399 9.58402 14.7295 9.62891C14.6117 9.68505 14.5163 9.76108 14.4434 9.85645C14.3704 9.95749 14.334 10.0645 14.334 10.1768C14.334 10.2721 14.3597 10.359 14.4102 10.4375C14.455 10.516 14.5249 10.5804 14.6201 10.6309C14.7099 10.6757 14.8139 10.6992 14.9316 10.6992C15.0496 10.6992 15.1543 10.6736 15.2441 10.623C15.3339 10.5781 15.4036 10.5129 15.4541 10.4287C15.5046 10.3501 15.5303 10.2602 15.5303 10.1592C15.5302 10.047 15.496 9.94302 15.4287 9.84766C15.3558 9.74677 15.2635 9.6706 15.1514 9.62012C15.2467 9.56959 15.3228 9.50212 15.3789 9.41797C15.4349 9.33382 15.4629 9.24378 15.4629 9.14844C15.4628 9.01392 15.4209 8.90446 15.3369 8.82031C15.2471 8.7305 15.1176 8.68559 14.9492 8.68555ZM17.3594 8.70215C17.1628 8.70215 16.9993 8.76951 16.8701 8.9043L17.0049 9.03027C17.1059 8.93486 17.2246 8.8877 17.3594 8.8877C17.4434 8.88778 17.5111 8.91245 17.5615 8.96289C17.612 9.01902 17.6367 9.08964 17.6367 9.17383C17.6367 9.29717 17.6033 9.39259 17.5361 9.45996C17.4688 9.5273 17.3423 9.56147 17.1572 9.56152V9.73828C17.2019 9.73271 17.2354 9.7295 17.2578 9.72949C17.3981 9.72949 17.5073 9.76381 17.5859 9.83105C17.6645 9.89279 17.704 9.98816 17.7041 10.1172C17.7041 10.2407 17.6731 10.3369 17.6113 10.4043C17.5496 10.477 17.4572 10.5136 17.334 10.5137C17.2722 10.5137 17.2187 10.5019 17.1738 10.4795C17.1289 10.4626 17.0862 10.438 17.0469 10.4043C17.0244 10.3819 17.0105 10.3647 17.0049 10.3535C16.9993 10.3367 16.9939 10.3164 16.9883 10.2939L16.9717 10.2773L16.9541 10.3027L16.8115 10.4795C16.8788 10.5524 16.9572 10.6059 17.0469 10.6396C17.1423 10.6789 17.2408 10.6992 17.3418 10.6992C17.4653 10.6992 17.5723 10.6735 17.6621 10.623C17.7464 10.5725 17.8137 10.502 17.8643 10.4121C17.9091 10.3279 17.9316 10.2326 17.9316 10.126C17.9316 10.0026 17.8983 9.89864 17.8311 9.81445C17.7637 9.7303 17.6737 9.66823 17.5615 9.62891C17.6568 9.6008 17.733 9.54728 17.7891 9.46875C17.8395 9.38457 17.8643 9.29142 17.8643 9.19043C17.8642 9.03897 17.8193 8.92109 17.7295 8.83691C17.6397 8.7472 17.5164 8.70223 17.3594 8.70215ZM21.8086 8.71094L21.749 9.70508L21.8838 9.76367C21.9343 9.70751 21.991 9.6626 22.0527 9.62891C22.12 9.59529 22.1844 9.57816 22.2461 9.57812C22.364 9.57812 22.4602 9.62084 22.5332 9.70508C22.6115 9.78927 22.6504 9.90184 22.6504 10.042C22.6504 10.1373 22.6342 10.2188 22.6006 10.2861C22.5669 10.359 22.5187 10.4148 22.457 10.4541C22.4009 10.4878 22.3389 10.5049 22.2715 10.5049C22.1985 10.5049 22.1365 10.4963 22.0859 10.4795C22.03 10.457 21.9826 10.4205 21.9434 10.3701C21.9209 10.3477 21.907 10.3306 21.9014 10.3193C21.8958 10.3025 21.8926 10.2831 21.8926 10.2607L21.8838 10.252L21.6816 10.3955C21.7434 10.4965 21.8248 10.5725 21.9258 10.623C22.0268 10.6735 22.1393 10.6992 22.2627 10.6992C22.375 10.6992 22.4797 10.6736 22.5752 10.623C22.665 10.5725 22.7378 10.4965 22.7939 10.3955C22.8445 10.3 22.8701 10.1846 22.8701 10.0498C22.8701 9.92089 22.8443 9.80601 22.7939 9.70508C22.7434 9.60399 22.6729 9.52808 22.583 9.47754C22.4988 9.42139 22.4004 9.39258 22.2881 9.39258C22.176 9.39263 22.0696 9.41838 21.9688 9.46875L21.9932 8.91309H22.8027V8.71094H21.8086ZM12.4883 8.71094L11.9834 8.98047L12.0332 9.09766L12.4297 8.98047V10.665H12.6484V8.71094H12.4883ZM19.2803 8.71094V8.9209H20.1143C19.9008 9.48813 19.7041 10.0697 19.5244 10.665H19.7686C19.9258 10.0922 20.1342 9.48277 20.3926 8.83691V8.71094H19.2803ZM5.51172 9.38477C5.52853 9.47456 5.53613 9.57847 5.53613 9.69629C5.53613 9.96017 5.50291 10.1623 5.43555 10.3027C5.36815 10.4375 5.27517 10.5049 5.15723 10.5049C5.01694 10.5048 4.91624 10.4149 4.85449 10.2354L5.51172 9.38477ZM10.0029 9.71289C10.1319 9.75219 10.2327 9.8143 10.3057 9.89844C10.3842 9.97695 10.4237 10.0639 10.4238 10.1592C10.4238 10.2602 10.3906 10.3425 10.3232 10.4043C10.2615 10.4661 10.1707 10.4961 10.0527 10.4961C9.93509 10.496 9.84268 10.4627 9.77539 10.3955C9.70804 10.3338 9.67387 10.2524 9.67383 10.1514C9.67383 10.0615 9.70487 9.97704 9.7666 9.89844C9.82838 9.8142 9.90746 9.7522 10.0029 9.71289ZM14.8896 9.71289C15.0188 9.7522 15.1203 9.8142 15.1934 9.89844C15.2718 9.97694 15.3114 10.0639 15.3115 10.1592C15.3115 10.2603 15.2774 10.3425 15.21 10.4043C15.1482 10.4659 15.0582 10.4961 14.9404 10.4961C14.8225 10.4961 14.7295 10.4629 14.6621 10.3955C14.5949 10.3338 14.5616 10.2523 14.5615 10.1514C14.5615 10.0615 14.5925 9.97706 14.6543 9.89844C14.716 9.8143 14.7943 9.7522 14.8896 9.71289ZM5.15723 8.89551C5.23022 8.89551 5.29224 8.92116 5.34277 8.97168C5.39891 9.02782 5.44067 9.1038 5.46875 9.19922L4.80371 10.0586C4.78686 9.95751 4.77832 9.83668 4.77832 9.69629C4.77832 9.44918 4.81249 9.25246 4.87988 9.10645C4.94723 8.9663 5.03946 8.89559 5.15723 8.89551ZM7.60156 8.89551C7.72475 8.89564 7.8172 8.94932 7.87891 9.05566C7.94068 9.16799 7.97485 9.34005 7.98047 9.57031C7.9356 9.63196 7.88198 9.67383 7.82031 9.69629C7.76425 9.72432 7.69121 9.73823 7.60156 9.73828C7.50054 9.73828 7.416 9.70182 7.34863 9.62891C7.28124 9.5559 7.24707 9.45754 7.24707 9.33398C7.24708 9.19921 7.27807 9.09229 7.33984 9.01367C7.40723 8.93509 7.49489 8.89551 7.60156 8.89551ZM10.0527 8.87109C10.1538 8.87109 10.2297 8.89899 10.2803 8.95508C10.3364 9.01124 10.3652 9.0786 10.3652 9.15723C10.3652 9.23016 10.3395 9.30304 10.2891 9.37598C10.2386 9.44333 10.1743 9.50001 10.0957 9.54492C9.97786 9.48319 9.89015 9.42429 9.83398 9.36816C9.77782 9.312 9.75 9.2383 9.75 9.14844C9.75005 9.06992 9.77568 9.00557 9.82617 8.95508C9.88223 8.8991 9.95756 8.87119 10.0527 8.87109ZM14.9404 8.87109C15.0415 8.87109 15.1174 8.89892 15.168 8.95508C15.2241 9.01123 15.252 9.07863 15.252 9.15723C15.2519 9.23011 15.2272 9.30309 15.1768 9.37598C15.1262 9.44337 15.061 9.49999 14.9824 9.54492C14.8647 9.48327 14.7778 9.42422 14.7217 9.36816C14.6655 9.312 14.6377 9.2383 14.6377 9.14844C14.6377 9.07001 14.6625 9.00554 14.7129 8.95508C14.769 8.89894 14.845 8.87112 14.9404 8.87109ZM3.76758 3.00781V7.97754H4.02051V3.00781H3.76758ZM4.52539 3.00781V7.97754H5.28418V3.00781H4.52539ZM5.53613 3.00781V7.97754H6.04199V3.00781H5.53613ZM6.21094 3.00781V7.97754H6.96973V3.00781H6.21094ZM7.47461 3.00781V7.97754H7.72754V3.00781H7.47461ZM7.98047 3.00781V7.97754H8.48535V3.00781H7.98047ZM8.65527 3.00781V7.97754H9.41309V3.00781H8.65527ZM9.66602 3.00781V7.97754H9.91797V3.00781H9.66602ZM10.4238 3.00781V7.97754H10.9297V3.00781H10.4238ZM11.0986 3.00781V7.97754H11.3516V3.00781H11.0986ZM11.8564 3.00781V7.97754H12.6152V3.00781H11.8564ZM13.1201 3.00781V7.97754H14.3008V3.00781H13.1201ZM14.5527 3.00781V7.97754H14.8057V3.00781H14.5527ZM15.3115 3.00781V7.97754H15.8164V3.00781H15.3115ZM15.9854 3.00781V7.97754H16.4912V3.00781H15.9854ZM16.9971 3.00781V7.97754H17.249V3.00781H16.9971ZM17.502 3.00781V7.97754H18.2607V3.00781H17.502ZM18.4297 3.00781V7.97754H19.1875V3.00781H18.4297ZM19.4404 3.00781V7.97754H19.9463V3.00781H19.4404ZM20.1982 3.00781V7.97754H21.3789V3.00781H20.1982ZM21.6309 3.00781V7.97754H22.3896V3.00781H21.6309ZM22.8945 3.00781V7.97754H23.1475V3.00781H22.8945Z" fill="#44B28D" style="fill:#44B28D;fill:color(display-p3 0.2667 0.6980 0.5529);fill-opacity:1;"/>
</svg>
