<svg width="32" height="32" viewBox="0 0 32 32" fill="none" xmlns="http://www.w3.org/2000/svg">
<circle cx="15.9362" cy="15.9362" r="15.0255" fill="#EED77C" stroke="#9C7D0D" style="fill:#EED77C;fill:color(display-p3 0.9340 0.8446 0.4868);fill-opacity:1;stroke:#9C7D0D;stroke:color(display-p3 0.6125 0.4910 0.0516);stroke-opacity:1;" stroke-width="1.82128"/>
<path d="M19.7228 12.5282C19.6108 11.8933 19.3755 11.3442 19.0169 10.8811C18.6584 10.4179 18.2027 10.0669 17.6499 9.82781C17.1046 9.5813 16.5032 9.45804 15.8459 9.45804C14.9495 9.45804 14.1614 9.68214 13.4816 10.1303C12.8018 10.5711 12.2714 11.221 11.8905 12.08C11.5095 12.9391 11.319 13.97 11.319 15.1727C11.319 16.3828 11.5095 17.4174 11.8905 18.2765C12.2714 19.1355 12.8018 19.7854 13.4816 20.2262C14.1688 20.6669 14.9569 20.8873 15.8459 20.8873C16.4883 20.8873 17.0784 20.7715 17.6163 20.5399C18.1616 20.3009 18.6173 19.9572 18.9833 19.509C19.3493 19.0608 19.5958 18.5267 19.7228 17.9067H22.6586C22.5092 18.9525 22.1319 19.9012 21.5269 20.7528C20.9293 21.6044 20.1374 22.2767 19.1514 22.7697C18.1653 23.2627 17.0486 23.5093 15.801 23.5093C14.3743 23.5093 13.0969 23.1768 11.9689 22.512C10.8484 21.8397 9.97065 20.8761 9.33569 19.6211C8.70074 18.3586 8.38326 16.8758 8.38326 15.1727C8.38326 13.462 8.70074 11.9792 9.33569 10.7242C9.97812 9.46924 10.8596 8.50934 11.9801 7.8445C13.1081 7.1722 14.3817 6.83604 15.801 6.83604C16.9963 6.83604 18.0832 7.06388 19.0617 7.51955C20.0403 7.96776 20.8434 8.62139 21.4708 9.48045C22.0983 10.332 22.4942 11.348 22.6586 12.5282H19.7228Z" fill="#9C7D0D" style="fill:#9C7D0D;fill:color(display-p3 0.6125 0.4910 0.0516);fill-opacity:1;"/>
</svg>
