<svg width="27" height="14" viewBox="0 0 27 14" fill="none" xmlns="http://www.w3.org/2000/svg">
<rect width="27" height="14" rx="2" fill="#FCFCFC" style="fill:#FCFCFC;fill:color(display-p3 0.9897 0.9897 0.9897);fill-opacity:1;"/>
<g clip-path="url(#clip0_543_11)">
<rect x="3" y="5" width="22" height="4" rx="2" fill="#44B28D" style="fill:#44B28D;fill:color(display-p3 0.2667 0.6980 0.5529);fill-opacity:1;"/>
<mask id="path-3-inside-1_543_11" fill="white">
<path d="M15 10C15 9.47471 14.8965 8.95457 14.6955 8.46927C14.4945 7.98396 14.1999 7.54301 13.8284 7.17157C13.457 6.80014 13.016 6.5055 12.5307 6.30448C12.0454 6.10346 11.5253 6 11 6C10.4747 6 9.95457 6.10346 9.46927 6.30448C8.98396 6.5055 8.54301 6.80014 8.17157 7.17157C7.80014 7.54301 7.5055 7.98396 7.30448 8.46927C7.10346 8.95457 7 9.47471 7 10L11 10H15Z"/>
</mask>
<path d="M15 10C15 9.47471 14.8965 8.95457 14.6955 8.46927C14.4945 7.98396 14.1999 7.54301 13.8284 7.17157C13.457 6.80014 13.016 6.5055 12.5307 6.30448C12.0454 6.10346 11.5253 6 11 6C10.4747 6 9.95457 6.10346 9.46927 6.30448C8.98396 6.5055 8.54301 6.80014 8.17157 7.17157C7.80014 7.54301 7.5055 7.98396 7.30448 8.46927C7.10346 8.95457 7 9.47471 7 10L11 10H15Z" fill="#EED77C" stroke="#9C7D0D" style="fill:#EED77C;fill:color(display-p3 0.9340 0.8446 0.4868);fill-opacity:1;stroke:#9C7D0D;stroke:color(display-p3 0.6118 0.4902 0.0510);stroke-opacity:1;" stroke-width="1.4" mask="url(#path-3-inside-1_543_11)"/>
<path d="M11.9265 9.46896C11.9001 9.31956 11.8448 9.19037 11.7604 9.0814C11.676 8.97242 11.5688 8.88981 11.4388 8.83356C11.3105 8.77556 11.169 8.74656 11.0143 8.74656C10.8034 8.74656 10.6179 8.79929 10.458 8.90475C10.298 9.00845 10.1732 9.16137 10.0836 9.3635C9.99396 9.56563 9.94914 9.80819 9.94914 10.0912C9.94914 10.3759 9.99396 10.6194 10.0836 10.8215C10.1732 11.0236 10.298 11.1765 10.458 11.2802C10.6197 11.3839 10.8051 11.4358 11.0143 11.4358C11.1654 11.4358 11.3043 11.4085 11.4309 11.3541C11.5592 11.2978 11.6664 11.217 11.7525 11.1115C11.8386 11.006 11.8966 10.8804 11.9265 10.7345H12.6173C12.5821 10.9806 12.4934 11.2038 12.351 11.4042C12.2104 11.6045 12.0241 11.7627 11.7921 11.8787C11.56 11.9947 11.2973 12.0527 11.0037 12.0527C10.668 12.0527 10.3675 11.9745 10.1021 11.8181C9.83841 11.6599 9.63188 11.4332 9.48248 11.1379C9.33308 10.8408 9.25838 10.4919 9.25838 10.0912C9.25838 9.68867 9.33308 9.33977 9.48248 9.04448C9.63364 8.7492 9.84104 8.52334 10.1047 8.3669C10.3701 8.20871 10.6698 8.12962 11.0037 8.12962C11.285 8.12962 11.5407 8.18323 11.771 8.29045C12.0012 8.39591 12.1902 8.5497 12.3378 8.75183C12.4855 8.95221 12.5786 9.19125 12.6173 9.46896H11.9265Z" fill="#9C7D0D" style="fill:#9C7D0D;fill:color(display-p3 0.6125 0.4910 0.0516);fill-opacity:1;"/>
</g>
<circle cx="18" cy="5" r="2.65" fill="#EED77C" stroke="#9C7D0D" style="fill:#EED77C;fill:color(display-p3 0.9340 0.8446 0.4868);fill-opacity:1;stroke:#9C7D0D;stroke:color(display-p3 0.6118 0.4902 0.0510);stroke-opacity:1;" stroke-width="0.7"/>
<path d="M18.4633 4.73448C18.4501 4.65978 18.4224 4.59519 18.3802 4.5407C18.338 4.48621 18.2844 4.44491 18.2194 4.41678C18.1552 4.38778 18.0845 4.37328 18.0071 4.37328C17.9017 4.37328 17.809 4.39965 17.729 4.45238C17.649 4.50423 17.5866 4.58068 17.5418 4.68175C17.497 4.78282 17.4746 4.9041 17.4746 5.04559C17.4746 5.18796 17.497 5.30968 17.5418 5.41074C17.5866 5.51181 17.649 5.58827 17.729 5.64012C17.8098 5.69197 17.9026 5.71789 18.0071 5.71789C18.0827 5.71789 18.1521 5.70427 18.2154 5.67703C18.2796 5.64891 18.3332 5.60848 18.3763 5.55575C18.4193 5.50302 18.4483 5.44018 18.4633 5.36724H18.8086C18.7911 5.49028 18.7467 5.60189 18.6755 5.70208C18.6052 5.80226 18.512 5.88136 18.396 5.93936C18.28 5.99736 18.1486 6.02636 18.0019 6.02636C17.834 6.02636 17.6837 5.98726 17.551 5.90904C17.4192 5.82995 17.3159 5.71658 17.2412 5.56893C17.1665 5.42041 17.1292 5.24596 17.1292 5.04559C17.1292 4.84433 17.1665 4.66989 17.2412 4.52224C17.3168 4.3746 17.4205 4.26167 17.5523 4.18345C17.6851 4.10436 17.8349 4.06481 18.0019 4.06481C18.1425 4.06481 18.2704 4.09161 18.3855 4.14522C18.5006 4.19795 18.5951 4.27485 18.6689 4.37592C18.7427 4.4761 18.7893 4.59562 18.8086 4.73448H18.4633Z" fill="#9C7D0D" style="fill:#9C7D0D;fill:color(display-p3 0.6125 0.4910 0.0516);fill-opacity:1;"/>
<defs>
<clipPath id="clip0_543_11">
<rect width="22" height="4" fill="white" style="fill:white;fill-opacity:1;" transform="translate(3 5)"/>
</clipPath>
</defs>
</svg>
